<svg width="1156mm" height="435mm" viewBox="0 0 1156 435" xmlns="http://www.w3.org/2000/svg" version="1.1" preserveAspectRatio="xMidYMid meet"><g id="svgGroup" stroke-linecap="round" fill-rule="evenodd" font-size="9pt" stroke="#000" stroke-width="0.25mm" fill="none" style="stroke:#000;stroke-width:0.25mm;fill:none"><path d="M 0 219 L 0 249.375 L 6 249.375 L 6 301.125 L 0 301.125 L 0 352.875 L 6 352.875 L 6 404.625 L 0 404.625 L 0 435 L 69.875 435 L 69.875 429 L 121.625 429 L 121.625 435 L 173.375 435 L 173.375 429 L 225.125 429 L 225.125 435 L 276.875 435 L 276.875 429 L 328.625 429 L 328.625 435 L 380.375 435 L 380.375 429 L 432.125 429 L 432.125 435 L 483.875 435 L 502 435 L 502 404.625 L 496 404.625 L 496 352.875 L 502 352.875 L 502 301.125 L 496 301.125 L 496 249.375 L 502 249.375 L 502 219 L 0 219 Z" id="front_outsideCutPath" stroke="#FF0000" stroke-width="0.1" style="stroke:#FF0000;stroke-width:0.1" vector-effect="non-scaling-stroke"/><path d="M 282.482 343.316 L 278.981 343.316 L 278.981 328.36 A 9.898 9.898 0 0 0 278.867 326.808 Q 278.737 325.991 278.458 325.339 A 4.165 4.165 0 0 0 277.694 324.141 Q 276.407 322.749 273.665 322.749 A 10.598 10.598 0 0 0 271.682 322.922 Q 270.578 323.133 269.727 323.6 A 4.937 4.937 0 0 0 268.35 324.711 Q 266.808 326.503 266.675 330.426 A 22.432 22.432 0 0 0 266.662 331.187 L 266.662 343.316 L 263.161 343.316 L 263.161 320.197 L 266.008 320.197 L 266.578 323.361 L 266.746 323.361 A 7.09 7.09 0 0 1 269.524 320.834 A 8.526 8.526 0 0 1 269.763 320.714 A 9.482 9.482 0 0 1 273.137 319.814 A 11.465 11.465 0 0 1 274.087 319.775 Q 278.264 319.775 280.373 321.789 A 6.068 6.068 0 0 1 281.852 324.111 Q 282.206 325.067 282.362 326.252 A 15.281 15.281 0 0 1 282.482 328.234 L 282.482 343.316 Z M 215.214 320.197 L 215.214 322.918 L 209.329 322.918 L 209.329 343.316 L 205.828 343.316 L 205.828 322.918 L 201.693 322.918 L 201.693 321.336 L 205.828 320.07 L 205.828 318.784 Q 205.828 311.427 211.377 310.421 A 10.643 10.643 0 0 1 213.274 310.262 A 11.276 11.276 0 0 1 214.869 310.383 Q 216.112 310.562 217.577 311 L 216.67 313.805 Q 215.232 313.341 214.091 313.206 A 7.53 7.53 0 0 0 213.211 313.151 A 4.722 4.722 0 0 0 212.072 313.28 A 3.033 3.033 0 0 0 210.279 314.47 Q 209.329 315.788 209.329 318.699 L 209.329 320.197 L 215.214 320.197 Z M 300.307 340.426 L 300.307 343.105 Q 299.737 343.379 298.63 343.558 A 15.177 15.177 0 0 1 297.64 343.687 Q 297.174 343.731 296.755 343.737 A 8.974 8.974 0 0 1 296.636 343.737 A 9.146 9.146 0 0 1 293.941 343.375 Q 289.929 342.136 289.929 336.671 L 289.929 322.918 L 286.617 322.918 L 286.617 321.23 L 289.929 319.775 L 291.405 314.839 L 293.43 314.839 L 293.43 320.197 L 300.138 320.197 L 300.138 322.918 L 293.43 322.918 L 293.43 336.523 Q 293.43 338.612 294.421 339.73 Q 295.413 340.848 297.143 340.848 A 11.5 11.5 0 0 0 298.827 340.727 A 10.599 10.599 0 0 0 298.936 340.71 Q 299.761 340.58 300.26 340.439 A 5.259 5.259 0 0 0 300.307 340.426 Z M 232.743 320.028 L 232.258 323.276 A 15.432 15.432 0 0 0 231.148 323.072 Q 230.378 322.96 229.727 322.96 A 6.067 6.067 0 0 0 225.245 324.896 A 8.3 8.3 0 0 0 224.928 325.238 Q 222.935 327.516 222.935 330.912 L 222.935 343.316 L 219.433 343.316 L 219.433 320.197 L 222.323 320.197 L 222.724 324.479 L 222.893 324.479 Q 224.179 322.222 225.993 320.998 Q 227.807 319.775 229.98 319.775 A 16.075 16.075 0 0 1 231.419 319.836 A 11.733 11.733 0 0 1 232.743 320.028 Z M 254.175 340.563 A 9.768 9.768 0 0 0 255.338 338.965 Q 257.022 336.083 257.022 331.735 Q 257.022 326.23 254.164 323.002 A 9.167 9.167 0 0 0 249.909 320.258 A 11.766 11.766 0 0 0 246.454 319.775 Q 241.434 319.775 238.607 322.928 A 9.674 9.674 0 0 0 237.419 324.576 Q 235.781 327.431 235.781 331.735 A 17.517 17.517 0 0 0 236.001 334.572 A 12.953 12.953 0 0 0 237.089 338.105 A 11.509 11.509 0 0 0 237.344 338.604 A 9.48 9.48 0 0 0 240.801 342.282 A 9.75 9.75 0 0 0 243.039 343.277 A 11.244 11.244 0 0 0 246.307 343.737 A 13.597 13.597 0 0 0 248.681 343.539 A 9.335 9.335 0 0 0 254.175 340.563 Z M 240.155 336.596 A 7.346 7.346 0 0 0 241.181 338.485 A 5.739 5.739 0 0 0 244.919 340.686 A 8.697 8.697 0 0 0 246.391 340.805 A 8.133 8.133 0 0 0 248.537 340.539 A 5.66 5.66 0 0 0 251.612 338.496 A 7.517 7.517 0 0 0 252.782 336.216 Q 253.126 335.162 253.277 333.876 A 18.444 18.444 0 0 0 253.394 331.735 Q 253.394 328.907 252.661 326.951 A 7.21 7.21 0 0 0 251.612 325.038 A 5.76 5.76 0 0 0 248.031 322.901 A 8.831 8.831 0 0 0 246.349 322.749 A 8.333 8.333 0 0 0 244.274 322.992 A 5.577 5.577 0 0 0 241.16 325.006 Q 239.899 326.631 239.546 329.403 A 18.503 18.503 0 0 0 239.409 331.735 Q 239.409 334.609 240.155 336.596 Z" id="front_labelLayer" stroke="#777777" fill="#777777" style="stroke:#777777;fill:#777777" vector-effect="non-scaling-stroke"/><path d="M 511 219 L 511 249.375 L 505 249.375 L 505 301.125 L 511 301.125 L 511 352.875 L 505 352.875 L 505 404.625 L 511 404.625 L 511 435 L 552.125 435 L 552.125 429 L 603.875 429 L 603.875 435 L 645 435 L 645 404.625 L 651 404.625 L 651 352.875 L 645 352.875 L 645 301.125 L 651 301.125 L 651 249.375 L 645 249.375 L 645 219 L 511 219 Z" id="left_outsideCutPath" stroke="#FF0000" stroke-width="0.1" style="stroke:#FF0000;stroke-width:0.1" vector-effect="non-scaling-stroke"/><path d="M 588.387 322.402 L 588.387 324.241 L 584.409 324.241 L 584.409 338.028 L 582.042 338.028 L 582.042 324.241 L 579.248 324.241 L 579.248 323.171 L 582.042 322.316 L 582.042 321.446 Q 582.042 315.686 587.075 315.686 A 7.622 7.622 0 0 1 588.154 315.768 Q 588.678 315.844 589.262 315.988 A 15.321 15.321 0 0 1 589.984 316.185 L 589.371 318.081 A 11.493 11.493 0 0 0 588.477 317.83 Q 588.025 317.723 587.628 317.677 A 5.09 5.09 0 0 0 587.032 317.639 A 3.192 3.192 0 0 0 586.263 317.726 A 2.05 2.05 0 0 0 585.05 318.531 Q 584.468 319.339 584.414 321.033 A 11.174 11.174 0 0 0 584.409 321.389 L 584.409 322.402 L 588.387 322.402 Z M 577.308 329.145 L 577.308 330.643 L 566.544 330.643 Q 566.593 332.522 567.223 333.783 A 4.444 4.444 0 0 0 567.934 334.82 Q 569.253 336.246 571.648 336.246 A 12.5 12.5 0 0 0 576.33 335.319 A 14.325 14.325 0 0 0 576.638 335.191 L 576.638 337.301 A 14.209 14.209 0 0 1 575.344 337.79 A 10.866 10.866 0 0 1 574.264 338.078 A 9.936 9.936 0 0 1 573.279 338.23 Q 572.793 338.282 572.244 338.302 A 19.283 19.283 0 0 1 571.563 338.313 A 9.197 9.197 0 0 1 569.261 338.041 A 6.512 6.512 0 0 1 566.095 336.203 A 6.965 6.965 0 0 1 564.429 333.143 Q 564.139 332.059 564.098 330.77 A 13.519 13.519 0 0 1 564.092 330.343 Q 564.092 327.263 565.328 325.216 A 7.009 7.009 0 0 1 565.952 324.341 A 6.065 6.065 0 0 1 570.373 322.136 A 8.367 8.367 0 0 1 570.95 322.116 A 7.211 7.211 0 0 1 572.98 322.388 A 5.487 5.487 0 0 1 575.598 324.048 A 6.618 6.618 0 0 1 577.097 327.072 A 9.633 9.633 0 0 1 577.308 329.145 Z M 598.424 336.075 L 598.424 337.886 A 2.328 2.328 0 0 1 598.148 337.995 Q 597.805 338.109 597.291 338.192 Q 596.542 338.313 595.943 338.313 Q 592.327 338.313 591.595 335.275 A 7.439 7.439 0 0 1 591.409 333.537 L 591.409 324.241 L 589.171 324.241 L 589.171 323.1 L 591.409 322.116 L 592.408 318.78 L 593.776 318.78 L 593.776 322.402 L 598.31 322.402 L 598.31 324.241 L 593.776 324.241 L 593.776 333.437 A 4.766 4.766 0 0 0 593.845 334.274 Q 593.927 334.733 594.107 335.097 A 2.296 2.296 0 0 0 594.446 335.604 A 2.199 2.199 0 0 0 595.798 336.324 A 3.163 3.163 0 0 0 596.286 336.36 A 7.773 7.773 0 0 0 597.424 336.278 A 7.164 7.164 0 0 0 597.498 336.267 A 12.803 12.803 0 0 0 597.839 336.209 Q 598.166 336.148 598.393 336.084 A 3.555 3.555 0 0 0 598.424 336.075 Z M 559.942 315.843 L 559.942 338.028 L 557.576 338.028 L 557.576 315.843 L 559.942 315.843 Z M 566.601 328.718 L 574.771 328.718 A 8.065 8.065 0 0 0 574.673 327.421 Q 574.459 326.107 573.773 325.289 A 3.243 3.243 0 0 0 571.82 324.177 A 4.864 4.864 0 0 0 570.921 324.098 A 4.666 4.666 0 0 0 569.573 324.283 A 3.604 3.604 0 0 0 567.92 325.324 Q 566.8 326.551 566.601 328.718 Z" id="left_labelLayer" stroke="#777777" fill="#777777" style="stroke:#777777;fill:#777777" vector-effect="non-scaling-stroke"/><path d="M 0 0 L 0 30.375 L 6 30.375 L 6 82.125 L 0 82.125 L 0 133.875 L 6 133.875 L 6 185.625 L 0 185.625 L 0 216 L 69.875 216 L 69.875 210 L 121.625 210 L 121.625 216 L 173.375 216 L 173.375 210 L 225.125 210 L 225.125 216 L 276.875 216 L 276.875 210 L 328.625 210 L 328.625 216 L 380.375 216 L 380.375 210 L 432.125 210 L 432.125 216 L 483.875 216 L 502 216 L 502 185.625 L 496 185.625 L 496 133.875 L 502 133.875 L 502 82.125 L 496 82.125 L 496 30.375 L 502 30.375 L 502 0 L 0 0 Z" id="back_outsideCutPath" stroke="#FF0000" stroke-width="0.1" style="stroke:#FF0000;stroke-width:0.1" vector-effect="non-scaling-stroke"/><path d="M 280.573 112.366 L 280.742 112.366 A 20.729 20.729 0 0 1 281.255 111.673 Q 281.845 110.906 282.687 109.926 A 75.238 75.238 0 0 1 283.505 108.991 L 290.973 101.081 L 295.128 101.081 L 285.763 110.932 L 295.782 124.2 L 291.542 124.2 L 283.379 113.273 L 280.742 115.551 L 280.742 124.2 L 277.283 124.2 L 277.283 91.378 L 280.742 91.378 L 280.742 108.78 A 23.334 23.334 0 0 1 280.732 109.439 Q 280.701 110.52 280.58 112.279 A 144.041 144.041 0 0 1 280.573 112.366 Z M 209.72 121.226 L 209.466 121.226 L 208.728 124.2 L 206.218 124.2 L 206.218 91.378 L 209.72 91.378 L 209.72 99.351 Q 209.72 102.03 209.551 104.161 L 209.72 104.161 A 7.961 7.961 0 0 1 215.531 100.786 A 11.959 11.959 0 0 1 216.976 100.701 A 10.702 10.702 0 0 1 219.988 101.103 A 8.011 8.011 0 0 1 224.053 103.813 Q 226.071 106.304 226.473 110.453 A 22.476 22.476 0 0 1 226.573 112.619 Q 226.573 118.315 224.032 121.468 A 8.289 8.289 0 0 1 218.14 124.566 A 11.876 11.876 0 0 1 216.976 124.622 A 10.621 10.621 0 0 1 214.307 124.296 A 9.241 9.241 0 0 1 212.852 123.788 A 7.755 7.755 0 0 1 209.72 121.226 Z M 249.502 124.2 L 246.908 124.2 L 246.212 120.909 L 246.043 120.909 Q 244.822 122.443 243.606 123.278 A 6.451 6.451 0 0 1 242.594 123.852 A 8.075 8.075 0 0 1 240.926 124.378 Q 240.117 124.546 239.18 124.598 A 15.758 15.758 0 0 1 238.302 124.622 A 10.746 10.746 0 0 1 236.115 124.413 Q 234.779 124.135 233.752 123.488 A 6.03 6.03 0 0 1 232.912 122.85 A 5.755 5.755 0 0 1 231.176 119.814 A 8.811 8.811 0 0 1 230.961 117.808 A 6.059 6.059 0 0 1 234.407 112.09 Q 236.973 110.725 241.45 110.496 A 34.204 34.204 0 0 1 242.162 110.468 L 246.085 110.341 L 246.085 108.907 Q 246.085 107.244 245.648 106.112 A 3.908 3.908 0 0 0 244.914 104.888 Q 243.98 103.853 242.154 103.644 A 8.652 8.652 0 0 0 241.17 103.591 A 11.4 11.4 0 0 0 238.547 103.918 Q 236.712 104.353 234.631 105.363 L 233.555 102.684 A 16.145 16.145 0 0 1 236.671 101.403 A 18.377 18.377 0 0 1 237.3 101.229 Q 239.335 100.701 241.381 100.701 A 14.789 14.789 0 0 1 243.634 100.861 Q 244.791 101.04 245.715 101.419 A 5.96 5.96 0 0 1 247.509 102.536 A 5.545 5.545 0 0 1 248.94 104.744 Q 249.274 105.65 249.409 106.777 A 13.778 13.778 0 0 1 249.502 108.422 L 249.502 124.2 Z M 272.136 101.861 L 271.06 104.836 A 15.577 15.577 0 0 0 269.37 104.274 A 18.605 18.605 0 0 0 268.529 104.066 A 14.464 14.464 0 0 0 267.428 103.862 Q 266.892 103.785 266.415 103.766 A 7.762 7.762 0 0 0 266.103 103.76 A 7.767 7.767 0 0 0 262.949 104.353 Q 259.058 106.068 259.058 112.746 A 16.958 16.958 0 0 0 259.226 115.215 Q 259.41 116.467 259.798 117.484 A 7.263 7.263 0 0 0 260.777 119.285 A 5.561 5.561 0 0 0 264.38 121.438 A 8.472 8.472 0 0 0 265.871 121.563 A 14.658 14.658 0 0 0 269.914 120.975 A 18.098 18.098 0 0 0 271.798 120.319 L 271.798 123.419 Q 269.806 124.452 266.927 124.598 A 19.203 19.203 0 0 1 265.955 124.622 A 13.087 13.087 0 0 1 262.772 124.256 A 8.874 8.874 0 0 1 258.182 121.531 A 10.128 10.128 0 0 1 256.076 117.663 Q 255.611 116.127 255.481 114.281 A 21.172 21.172 0 0 1 255.43 112.788 Q 255.43 106.987 258.225 103.823 A 9.067 9.067 0 0 1 263.189 100.968 A 13.745 13.745 0 0 1 266.188 100.659 A 15.802 15.802 0 0 1 269.52 101.018 A 17.478 17.478 0 0 1 270.492 101.254 Q 271.467 101.524 272.115 101.851 A 5.218 5.218 0 0 1 272.136 101.861 Z M 212.654 104.503 A 4.657 4.657 0 0 0 211.302 105.69 Q 209.72 107.747 209.72 112.619 A 23.152 23.152 0 0 0 209.834 115.012 Q 210.086 117.427 210.891 118.896 A 5.281 5.281 0 0 0 211.344 119.591 A 5.08 5.08 0 0 0 213.921 121.33 Q 214.782 121.6 215.833 121.667 A 11.259 11.259 0 0 0 216.554 121.69 A 6.98 6.98 0 0 0 218.537 121.424 A 5.036 5.036 0 0 0 221.363 119.338 A 8.038 8.038 0 0 0 222.358 117.186 Q 222.945 115.264 222.945 112.577 A 20.688 20.688 0 0 0 222.82 110.22 Q 222.5 107.44 221.363 105.848 A 5.106 5.106 0 0 0 218.112 103.791 A 8.098 8.098 0 0 0 216.47 103.633 Q 214.138 103.633 212.654 104.503 Z M 246.001 114.919 L 246.001 112.83 L 242.499 112.978 Q 239.012 113.101 237.149 113.923 A 5.378 5.378 0 0 0 236.477 114.275 Q 234.631 115.425 234.631 117.851 Q 234.631 119.52 235.52 120.488 A 3.119 3.119 0 0 0 235.781 120.74 Q 236.774 121.597 238.451 121.713 A 7.875 7.875 0 0 0 238.998 121.732 A 9.641 9.641 0 0 0 241.08 121.52 Q 242.53 121.199 243.601 120.393 A 5.846 5.846 0 0 0 244.134 119.939 Q 245.991 118.156 246.001 114.954 A 11.104 11.104 0 0 0 246.001 114.919 Z" id="back_labelLayer" stroke="#777777" fill="#777777" style="stroke:#777777;fill:#777777" vector-effect="non-scaling-stroke"/><path d="M 511 0 L 511 30.375 L 505 30.375 L 505 82.125 L 511 82.125 L 511 133.875 L 505 133.875 L 505 185.625 L 511 185.625 L 511 216 L 552.125 216 L 552.125 210 L 603.875 210 L 603.875 216 L 645 216 L 645 185.625 L 651 185.625 L 651 133.875 L 645 133.875 L 645 82.125 L 651 82.125 L 651 30.375 L 645 30.375 L 645 0 L 511 0 Z" id="right_outsideCutPath" stroke="#FF0000" stroke-width="0.1" style="stroke:#FF0000;stroke-width:0.1" vector-effect="non-scaling-stroke"/><path d="M 596.157 115.585 L 593.791 115.585 L 593.791 105.476 A 6.69 6.69 0 0 0 593.714 104.427 Q 593.626 103.875 593.437 103.434 A 2.816 2.816 0 0 0 592.921 102.625 A 2.668 2.668 0 0 0 591.826 101.926 Q 591.397 101.775 590.868 101.718 A 6.275 6.275 0 0 0 590.198 101.684 A 7.162 7.162 0 0 0 588.859 101.8 Q 588.116 101.942 587.545 102.255 A 3.314 3.314 0 0 0 586.597 103.024 A 3.938 3.938 0 0 0 585.929 104.208 Q 585.464 105.461 585.464 107.415 L 585.464 115.585 L 583.097 115.585 L 583.097 93.4 L 585.464 93.4 L 585.464 100.115 Q 585.464 101.327 585.35 102.126 L 585.492 102.126 A 4.729 4.729 0 0 1 587.149 100.531 A 5.777 5.777 0 0 1 587.481 100.351 A 6.076 6.076 0 0 1 589.476 99.759 A 7.681 7.681 0 0 1 590.426 99.702 Q 593.292 99.702 594.724 101.063 A 4.121 4.121 0 0 1 595.741 102.66 Q 595.985 103.323 596.086 104.147 A 10.235 10.235 0 0 1 596.157 105.391 L 596.157 115.585 Z M 574.485 99.959 L 579.889 99.959 L 579.889 101.456 L 576.995 101.798 Q 577.394 102.297 577.708 103.102 A 4.553 4.553 0 0 1 577.977 104.19 A 5.847 5.847 0 0 1 578.021 104.92 A 5.426 5.426 0 0 1 577.772 106.602 A 4.388 4.388 0 0 1 576.453 108.584 Q 574.885 109.953 572.147 109.953 Q 571.449 109.953 570.835 109.839 Q 569.324 110.638 569.324 111.85 Q 569.324 112.491 569.852 112.798 A 1.66 1.66 0 0 0 570.22 112.949 Q 570.605 113.062 571.192 113.093 A 9.003 9.003 0 0 0 571.662 113.104 L 574.428 113.104 A 9.688 9.688 0 0 1 575.9 113.209 Q 576.669 113.327 577.291 113.58 A 4.277 4.277 0 0 1 578.328 114.174 A 3.463 3.463 0 0 1 579.615 116.379 A 5.2 5.2 0 0 1 579.69 117.282 A 5.125 5.125 0 0 1 579.397 119.055 Q 578.909 120.387 577.608 121.238 Q 576.156 122.188 573.776 122.475 A 18.759 18.759 0 0 1 571.534 122.6 A 13.261 13.261 0 0 1 569.755 122.489 Q 567.95 122.243 566.808 121.459 A 3.772 3.772 0 0 1 565.592 120.14 Q 565.202 119.418 565.154 118.502 A 4.998 4.998 0 0 1 565.147 118.237 Q 565.147 116.811 566.059 115.77 A 4.133 4.133 0 0 1 567.479 114.736 A 5.858 5.858 0 0 1 568.625 114.359 A 2.456 2.456 0 0 1 567.672 113.588 A 2.916 2.916 0 0 1 567.62 113.518 A 2.194 2.194 0 0 1 567.218 112.332 A 2.718 2.718 0 0 1 567.214 112.192 A 2.707 2.707 0 0 1 567.35 111.32 A 2.399 2.399 0 0 1 567.67 110.695 Q 568.126 110.053 569.11 109.454 Q 567.898 108.955 567.136 107.758 A 4.893 4.893 0 0 1 566.385 105.4 A 5.971 5.971 0 0 1 566.373 105.02 A 6.838 6.838 0 0 1 566.553 103.403 A 4.499 4.499 0 0 1 567.913 101.063 A 5.026 5.026 0 0 1 569.842 100 Q 570.908 99.673 572.275 99.673 A 9.072 9.072 0 0 1 573.476 99.749 A 6.909 6.909 0 0 1 574.485 99.959 Z M 608.205 113.632 L 608.205 115.442 A 2.328 2.328 0 0 1 607.929 115.552 Q 607.586 115.666 607.072 115.749 Q 606.323 115.87 605.724 115.87 Q 602.108 115.87 601.376 112.832 A 7.439 7.439 0 0 1 601.19 111.094 L 601.19 101.798 L 598.952 101.798 L 598.952 100.657 L 601.19 99.673 L 602.188 96.337 L 603.557 96.337 L 603.557 99.959 L 608.091 99.959 L 608.091 101.798 L 603.557 101.798 L 603.557 110.994 A 4.766 4.766 0 0 0 603.626 111.831 Q 603.708 112.29 603.888 112.654 A 2.296 2.296 0 0 0 604.227 113.161 A 2.199 2.199 0 0 0 605.579 113.881 A 3.163 3.163 0 0 0 606.067 113.917 A 7.773 7.773 0 0 0 607.205 113.835 A 7.164 7.164 0 0 0 607.278 113.824 A 12.803 12.803 0 0 0 607.62 113.766 Q 607.947 113.705 608.173 113.641 A 3.555 3.555 0 0 0 608.205 113.632 Z M 556.792 99.844 L 556.464 102.04 Q 555.494 101.826 554.753 101.826 A 4.101 4.101 0 0 0 551.723 103.135 A 5.611 5.611 0 0 0 551.509 103.366 Q 550.162 104.906 550.162 107.201 L 550.162 115.585 L 547.795 115.585 L 547.795 99.959 L 549.748 99.959 L 550.019 102.853 L 550.133 102.853 A 7.993 7.993 0 0 1 551.027 101.576 A 6.105 6.105 0 0 1 552.229 100.5 A 4.718 4.718 0 0 1 554.924 99.673 Q 555.965 99.673 556.792 99.844 Z M 562.081 99.959 L 562.081 115.585 L 559.714 115.585 L 559.714 99.959 L 562.081 99.959 Z M 573.673 115.229 L 570.835 115.229 Q 569.656 115.229 568.858 115.642 A 2.772 2.772 0 0 0 568.326 115.999 A 2.494 2.494 0 0 0 567.507 117.413 A 3.787 3.787 0 0 0 567.428 118.209 A 2.377 2.377 0 0 0 567.585 119.09 Q 567.81 119.659 568.358 120.042 A 2.777 2.777 0 0 0 568.497 120.133 A 3.79 3.79 0 0 0 569.429 120.533 Q 570.308 120.787 571.543 120.789 A 12.137 12.137 0 0 0 571.563 120.789 A 15.911 15.911 0 0 0 573.116 120.719 Q 574.674 120.565 575.652 120.078 A 3.931 3.931 0 0 0 575.975 119.898 A 3.452 3.452 0 0 0 576.776 119.228 A 2.587 2.587 0 0 0 577.408 117.481 A 3.202 3.202 0 0 0 577.35 116.846 Q 577.194 116.078 576.624 115.721 A 2.245 2.245 0 0 0 576.092 115.488 Q 575.247 115.229 573.673 115.229 Z M 569.238 106.983 A 2.532 2.532 0 0 0 569.638 107.444 A 3.059 3.059 0 0 0 570.869 108.112 Q 571.338 108.247 571.898 108.277 A 6.094 6.094 0 0 0 572.218 108.285 A 5.156 5.156 0 0 0 573.568 108.124 Q 575.683 107.549 575.683 104.92 A 5.089 5.089 0 0 0 575.509 103.527 Q 575.063 101.964 573.475 101.549 A 5.148 5.148 0 0 0 572.176 101.399 Q 570.897 101.399 570.071 101.926 A 2.724 2.724 0 0 0 569.609 102.297 A 2.84 2.84 0 0 0 568.922 103.454 Q 568.777 103.903 568.732 104.448 A 6.226 6.226 0 0 0 568.711 104.963 Q 568.711 106.2 569.238 106.983 Z M 559.515 95.724 Q 559.515 94.911 559.914 94.533 A 1.369 1.369 0 0 1 560.792 94.159 A 1.807 1.807 0 0 1 560.912 94.156 Q 561.482 94.156 561.896 94.541 Q 562.24 94.861 562.298 95.468 A 2.707 2.707 0 0 1 562.309 95.724 Q 562.309 96.522 561.896 96.914 A 1.381 1.381 0 0 1 560.912 97.307 A 1.503 1.503 0 0 1 560.394 97.22 A 1.328 1.328 0 0 1 559.914 96.914 A 1.222 1.222 0 0 1 559.616 96.425 Q 559.55 96.23 559.527 95.991 A 2.794 2.794 0 0 1 559.515 95.724 Z" id="right_labelLayer" stroke="#777777" fill="#777777" style="stroke:#777777;fill:#777777" vector-effect="non-scaling-stroke"/><path d="M 660 295 L 660 336.125 L 654 336.125 L 654 387.875 L 660 387.875 L 660 429 L 723.875 429 L 723.875 435 L 775.625 435 L 775.625 429 L 827.375 429 L 827.375 435 L 879.125 435 L 879.125 429 L 930.875 429 L 930.875 435 L 982.625 435 L 982.625 429 L 1034.375 429 L 1034.375 435 L 1086.125 435 L 1086.125 429 L 1137.875 429 L 1150 429 L 1150 387.875 L 1156 387.875 L 1156 336.125 L 1150 336.125 L 1150 295 L 1086.125 295 L 1086.125 289 L 1034.375 289 L 1034.375 295 L 982.625 295 L 982.625 289 L 930.875 289 L 930.875 295 L 879.125 295 L 879.125 289 L 827.375 289 L 827.375 295 L 775.625 295 L 775.625 289 L 723.875 289 L 723.875 295 L 672.125 295 L 660 295 Z" id="bottom_outsideCutPath" stroke="#FF0000" stroke-width="0.1" style="stroke:#FF0000;stroke-width:0.1" vector-effect="non-scaling-stroke"/><path d="M 953.035 372.95 L 950.668 372.95 L 950.668 362.784 A 6.982 6.982 0 0 0 950.597 361.757 Q 950.519 361.233 950.354 360.81 A 2.86 2.86 0 0 0 949.869 359.982 Q 949.171 359.165 947.796 359.063 A 5.494 5.494 0 0 0 947.388 359.048 Q 945.839 359.048 944.857 359.672 A 3.134 3.134 0 0 0 944.123 360.317 Q 943.073 361.58 943.068 364.2 A 13.166 13.166 0 0 0 943.068 364.224 L 943.068 372.95 L 940.701 372.95 L 940.701 362.784 A 6.982 6.982 0 0 0 940.631 361.757 Q 940.553 361.233 940.388 360.81 A 2.86 2.86 0 0 0 939.903 359.982 A 2.483 2.483 0 0 0 938.761 359.24 Q 938.35 359.105 937.848 359.065 A 5.542 5.542 0 0 0 937.408 359.048 A 5.878 5.878 0 0 0 936.192 359.166 Q 935.442 359.324 934.883 359.698 A 3.102 3.102 0 0 0 934.15 360.381 A 3.969 3.969 0 0 0 933.562 361.499 Q 933.18 362.579 933.125 364.197 A 16.478 16.478 0 0 0 933.116 364.751 L 933.116 372.95 L 930.75 372.95 L 930.75 357.323 L 932.674 357.323 L 933.059 359.462 L 933.173 359.462 Q 933.843 358.321 935.063 357.68 A 5.619 5.619 0 0 1 937.282 357.057 A 6.787 6.787 0 0 1 937.793 357.038 A 7.749 7.749 0 0 1 939.537 357.22 Q 940.61 357.468 941.358 358.055 A 4.041 4.041 0 0 1 942.584 359.69 L 942.698 359.69 A 4.942 4.942 0 0 1 944.559 357.842 A 5.938 5.938 0 0 1 944.722 357.751 A 5.99 5.99 0 0 1 946.92 357.082 A 7.469 7.469 0 0 1 947.745 357.038 Q 949.532 357.038 950.714 357.657 A 3.901 3.901 0 0 1 951.716 358.4 A 4.076 4.076 0 0 1 952.591 359.831 Q 952.826 360.462 952.937 361.248 A 10.856 10.856 0 0 1 953.035 362.755 L 953.035 372.95 Z M 859.332 370.939 L 859.161 370.939 L 858.662 372.95 L 856.965 372.95 L 856.965 350.764 L 859.332 350.764 L 859.332 356.154 A 49.346 49.346 0 0 1 859.305 357.821 Q 859.277 358.662 859.218 359.405 L 859.332 359.405 A 5.381 5.381 0 0 1 863.26 357.124 A 8.084 8.084 0 0 1 864.237 357.066 A 7.234 7.234 0 0 1 866.273 357.338 A 5.415 5.415 0 0 1 869.02 359.169 A 6.974 6.974 0 0 1 870.243 361.525 Q 870.544 362.495 870.657 363.658 A 15.192 15.192 0 0 1 870.724 365.122 A 13.877 13.877 0 0 1 870.54 367.457 Q 870.328 368.701 869.869 369.699 A 6.652 6.652 0 0 1 869.006 371.103 Q 867.288 373.235 864.237 373.235 A 7.179 7.179 0 0 1 862.433 373.015 A 6.246 6.246 0 0 1 861.449 372.672 A 5.242 5.242 0 0 1 859.332 370.939 Z M 899.682 370.996 L 899.682 372.807 A 2.328 2.328 0 0 1 899.406 372.917 Q 899.063 373.03 898.548 373.114 Q 897.8 373.235 897.201 373.235 Q 893.585 373.235 892.853 370.196 A 7.439 7.439 0 0 1 892.667 368.458 L 892.667 359.162 L 890.428 359.162 L 890.428 358.022 L 892.667 357.038 L 893.665 353.702 L 895.034 353.702 L 895.034 357.323 L 899.568 357.323 L 899.568 359.162 L 895.034 359.162 L 895.034 368.359 A 4.766 4.766 0 0 0 895.102 369.196 Q 895.185 369.655 895.365 370.018 A 2.296 2.296 0 0 0 895.704 370.526 A 2.199 2.199 0 0 0 897.055 371.245 A 3.163 3.163 0 0 0 897.543 371.281 A 7.773 7.773 0 0 0 898.682 371.2 A 7.164 7.164 0 0 0 898.755 371.189 A 12.803 12.803 0 0 0 899.097 371.13 Q 899.423 371.069 899.65 371.005 A 3.555 3.555 0 0 0 899.682 370.996 Z M 909.99 370.996 L 909.99 372.807 A 2.328 2.328 0 0 1 909.714 372.917 Q 909.371 373.03 908.857 373.114 Q 908.108 373.235 907.509 373.235 Q 903.893 373.235 903.161 370.196 A 7.439 7.439 0 0 1 902.975 368.458 L 902.975 359.162 L 900.737 359.162 L 900.737 358.022 L 902.975 357.038 L 903.973 353.702 L 905.342 353.702 L 905.342 357.323 L 909.876 357.323 L 909.876 359.162 L 905.342 359.162 L 905.342 368.359 A 4.766 4.766 0 0 0 905.411 369.196 Q 905.493 369.655 905.673 370.018 A 2.296 2.296 0 0 0 906.012 370.526 A 2.199 2.199 0 0 0 907.364 371.245 A 3.163 3.163 0 0 0 907.851 371.281 A 7.773 7.773 0 0 0 908.99 371.2 A 7.164 7.164 0 0 0 909.063 371.189 A 12.803 12.803 0 0 0 909.405 371.13 Q 909.732 371.069 909.958 371.005 A 3.555 3.555 0 0 0 909.99 370.996 Z M 888.13 367.5 A 12.225 12.225 0 0 0 888.347 365.122 A 13.891 13.891 0 0 0 888.342 364.746 Q 888.248 361.289 886.415 359.219 A 6.196 6.196 0 0 0 883.538 357.364 A 7.953 7.953 0 0 0 881.204 357.038 A 9.192 9.192 0 0 0 879.552 357.18 A 6.26 6.26 0 0 0 875.9 359.169 Q 873.989 361.301 873.989 365.122 A 11.84 11.84 0 0 0 874.138 367.04 A 8.756 8.756 0 0 0 874.873 369.428 Q 875.757 371.267 877.383 372.251 A 6.59 6.59 0 0 0 878.895 372.924 A 7.6 7.6 0 0 0 881.104 373.235 A 9.191 9.191 0 0 0 882.709 373.101 A 6.31 6.31 0 0 0 886.422 371.089 Q 887.7 369.664 888.13 367.5 Z M 926.383 367.5 A 12.225 12.225 0 0 0 926.601 365.122 A 13.891 13.891 0 0 0 926.595 364.746 Q 926.502 361.289 924.669 359.219 A 6.196 6.196 0 0 0 921.792 357.364 A 7.953 7.953 0 0 0 919.457 357.038 A 9.192 9.192 0 0 0 917.806 357.18 A 6.26 6.26 0 0 0 914.153 359.169 Q 912.243 361.301 912.243 365.122 A 11.84 11.84 0 0 0 912.392 367.04 A 8.756 8.756 0 0 0 913.127 369.428 Q 914.011 371.267 915.636 372.251 A 6.59 6.59 0 0 0 917.149 372.924 A 7.6 7.6 0 0 0 919.358 373.235 A 9.191 9.191 0 0 0 920.962 373.101 A 6.31 6.31 0 0 0 924.676 371.089 Q 925.954 369.664 926.383 367.5 Z M 876.442 365.122 A 11.985 11.985 0 0 0 876.556 366.834 Q 876.811 368.6 877.639 369.685 A 3.879 3.879 0 0 0 880.166 371.172 A 5.878 5.878 0 0 0 881.161 371.253 A 5.497 5.497 0 0 0 882.611 371.073 A 3.826 3.826 0 0 0 884.69 369.692 A 5.081 5.081 0 0 0 885.481 368.151 Q 885.894 366.885 885.894 365.122 Q 885.894 363.211 885.399 361.889 A 4.873 4.873 0 0 0 884.69 360.595 A 3.893 3.893 0 0 0 882.269 359.151 A 5.969 5.969 0 0 0 881.132 359.048 Q 878.808 359.048 877.625 360.574 Q 876.773 361.672 876.534 363.546 A 12.507 12.507 0 0 0 876.442 365.122 Z M 914.695 365.122 A 11.985 11.985 0 0 0 914.809 366.834 Q 915.065 368.6 915.893 369.685 A 3.879 3.879 0 0 0 918.419 371.172 A 5.878 5.878 0 0 0 919.415 371.253 A 5.497 5.497 0 0 0 920.865 371.073 A 3.826 3.826 0 0 0 922.943 369.692 A 5.081 5.081 0 0 0 923.735 368.151 Q 924.148 366.885 924.148 365.122 Q 924.148 363.211 923.652 361.889 A 4.873 4.873 0 0 0 922.943 360.595 A 3.893 3.893 0 0 0 920.523 359.151 A 5.969 5.969 0 0 0 919.386 359.048 Q 917.062 359.048 915.879 360.574 Q 915.027 361.672 914.788 363.546 A 12.507 12.507 0 0 0 914.695 365.122 Z M 863.895 359.048 A 6.651 6.651 0 0 0 862.607 359.164 Q 861.873 359.309 861.316 359.636 A 3.148 3.148 0 0 0 860.401 360.438 A 4.052 4.052 0 0 0 859.815 361.556 Q 859.419 362.665 859.348 364.351 A 18.235 18.235 0 0 0 859.332 365.122 A 15.649 15.649 0 0 0 859.41 366.74 Q 859.58 368.371 860.124 369.364 A 3.57 3.57 0 0 0 860.43 369.834 A 3.434 3.434 0 0 0 862.172 371.01 Q 862.948 371.253 863.952 371.253 A 4.718 4.718 0 0 0 865.292 371.074 A 3.404 3.404 0 0 0 867.202 369.663 A 5.433 5.433 0 0 0 867.875 368.209 Q 868.272 366.909 868.272 365.094 A 13.983 13.983 0 0 0 868.187 363.5 Q 867.987 361.757 867.311 360.705 A 3.927 3.927 0 0 0 867.202 360.545 A 3.451 3.451 0 0 0 865.005 359.155 A 5.474 5.474 0 0 0 863.895 359.048 Z" id="bottom_labelLayer" stroke="#777777" fill="#777777" style="stroke:#777777;fill:#777777" vector-effect="non-scaling-stroke"/></g></svg>