0
SECTION
2
HEADER
9
$INSUNITS
70
1
0
ENDSEC
0
SECTION
2
TABLES
0
TABLE
2
LAYER
0
ENDTAB
0
ENDSEC
0
SECTION
2
ENTITIES
0
LINE
8
front_outsideCutPath
10
0
20
219
11
0
21
188.625
0
LINE
8
front_outsideCutPath
10
0
20
188.625
11
6
21
188.625
0
LINE
8
front_outsideCutPath
10
6
20
188.625
11
6
21
136.875
0
LINE
8
front_outsideCutPath
10
6
20
136.875
11
0
21
136.875
0
LINE
8
front_outsideCutPath
10
0
20
136.875
11
0
21
85.125
0
LINE
8
front_outsideCutPath
10
0
20
85.125
11
6
21
85.125
0
LINE
8
front_outsideCutPath
10
6
20
85.125
11
6
21
33.375
0
LINE
8
front_outsideCutPath
10
6
20
33.375
11
0
21
33.375
0
LINE
8
front_outsideCutPath
10
0
20
33.375
11
0
21
3
0
LINE
8
front_outsideCutPath
10
0
20
3
11
69.875
21
3
0
LINE
8
front_outsideCutPath
10
69.875
20
3
11
69.875
21
9
0
LINE
8
front_outsideCutPath
10
69.875
20
9
11
121.625
21
9
0
LINE
8
front_outsideCutPath
10
121.625
20
9
11
121.625
21
3
0
LINE
8
front_outsideCutPath
10
121.625
20
3
11
173.375
21
3
0
LINE
8
front_outsideCutPath
10
173.375
20
3
11
173.375
21
9
0
LINE
8
front_outsideCutPath
10
173.375
20
9
11
225.125
21
9
0
LINE
8
front_outsideCutPath
10
225.125
20
9
11
225.125
21
3
0
LINE
8
front_outsideCutPath
10
225.125
20
3
11
276.875
21
3
0
LINE
8
front_outsideCutPath
10
276.875
20
3
11
276.875
21
9
0
LINE
8
front_outsideCutPath
10
276.875
20
9
11
328.625
21
9
0
LINE
8
front_outsideCutPath
10
328.625
20
9
11
328.625
21
3
0
LINE
8
front_outsideCutPath
10
328.625
20
3
11
380.375
21
3
0
LINE
8
front_outsideCutPath
10
380.375
20
3
11
380.375
21
9
0
LINE
8
front_outsideCutPath
10
380.375
20
9
11
432.125
21
9
0
LINE
8
front_outsideCutPath
10
432.125
20
9
11
432.125
21
3
0
LINE
8
front_outsideCutPath
10
432.125
20
3
11
483.875
21
3
0
LINE
8
front_outsideCutPath
10
483.875
20
3
11
502
21
3
0
LINE
8
front_outsideCutPath
10
502
20
3
11
502
21
33.375
0
LINE
8
front_outsideCutPath
10
502
20
33.375
11
496
21
33.375
0
LINE
8
front_outsideCutPath
10
496
20
33.375
11
496
21
85.125
0
LINE
8
front_outsideCutPath
10
496
20
85.125
11
502
21
85.125
0
LINE
8
front_outsideCutPath
10
502
20
85.125
11
502
21
136.875
0
LINE
8
front_outsideCutPath
10
502
20
136.875
11
496
21
136.875
0
LINE
8
front_outsideCutPath
10
496
20
136.875
11
496
21
188.625
0
LINE
8
front_outsideCutPath
10
496
20
188.625
11
502
21
188.625
0
LINE
8
front_outsideCutPath
10
502
20
188.625
11
502
21
219
0
LINE
8
front_outsideCutPath
10
502
20
219
11
0
21
219
0
LINE
8
front_labelLayer
10
215.2144531
20
117.8031917
11
215.2144531
21
115.082098
0
LINE
8
front_labelLayer
10
215.2144531
20
115.082098
11
209.3292969
21
115.082098
0
LINE
8
front_labelLayer
10
209.3292969
20
115.082098
11
209.3292969
21
94.6844417
0
LINE
8
front_labelLayer
10
209.3292969
20
94.6844417
11
205.8277344
21
94.6844417
0
LINE
8
front_labelLayer
10
205.8277344
20
94.6844417
11
205.8277344
21
115.082098
0
LINE
8
front_labelLayer
10
205.8277344
20
115.082098
11
201.6933594
21
115.082098
0
LINE
8
front_labelLayer
10
201.6933594
20
115.082098
11
201.6933594
21
116.6641292
0
LINE
8
front_labelLayer
10
201.6933594
20
116.6641292
11
205.8277344
21
117.9297542
0
LINE
8
front_labelLayer
10
205.8277344
20
117.9297542
11
205.8277344
21
119.216473
0
LINE
8
front_labelLayer
10
217.5769531
20
127.0000667
11
216.6699219
21
124.194598
0
LINE
8
front_labelLayer
10
209.3292969
20
119.300848
11
209.3292969
21
117.8031917
0
LINE
8
front_labelLayer
10
209.3292969
20
117.8031917
11
215.2144531
21
117.8031917
0
ARC
8
front_labelLayer
10
220.0183488
20
119.3796156
40
14.1915522
50
167.5776018
51
180.6586727
0
ARC
8
front_labelLayer
10
213.3450128
20
120.93545
40
7.3402431
50
141.7433872
51
168.2322095
0
ARC
8
front_labelLayer
10
212.2584592
20
121.5025497
40
6.1401071
50
98.2551511
51
139.6203369
0
ARC
8
front_labelLayer
10
213.2124695
20
117.0953966
40
10.6431283
50
89.6696829
51
99.931441
0
ARC
8
front_labelLayer
10
213.2151302
20
116.4626552
40
11.2758455
50
81.5640874
51
89.7017378
0
ARC
8
front_labelLayer
10
212.422416
20
110.9322435
40
16.862737
50
75.9739919
51
81.6564761
0
ARC
8
front_labelLayer
10
211.0621359
20
105.2900739
40
22.6664207
50
73.2963507
51
76.0946299
0
ARC
8
front_labelLayer
10
211.4046322
20
108.0268367
40
17.0035225
50
71.9613332
51
76.5918176
0
ARC
8
front_labelLayer
10
212.7237996
20
113.6228564
40
11.2541465
50
76.5183395
51
83.0216945
0
ARC
8
front_labelLayer
10
213.1833001
20
117.3181154
40
7.5304382
50
83.07607
51
89.7926909
0
ARC
8
front_labelLayer
10
213.1681779
20
120.1264576
40
4.7222367
50
89.4859231
51
103.4197515
0
ARC
8
front_labelLayer
10
212.7424343
20
121.7621182
40
3.0326249
50
102.7677412
51
144.3380275
0
ARC
8
front_labelLayer
10
213.6001336
20
121.2102682
40
4.0515397
50
145.0688719
51
162.1801744
0
ARC
8
front_labelLayer
10
216.5408872
20
120.2208514
40
7.1541158
50
161.8437655
51
171.7846908
0
ARC
8
front_labelLayer
10
221.3372988
20
119.5004452
40
12.0042801
50
171.6527767
51
178.438346
0
ARC
8
front_labelLayer
10
225.861767
20
119.3075273
40
16.5324715
50
178.1973348
51
180.0231483
0
LINE
8
front_labelLayer
10
232.7433594
20
117.9719417
11
232.2582031
21
114.7235042
0
LINE
8
front_labelLayer
10
222.9347656
20
107.0875667
11
222.9347656
21
94.6844417
0
LINE
8
front_labelLayer
10
222.9347656
20
94.6844417
11
219.4332031
21
94.6844417
0
LINE
8
front_labelLayer
10
219.4332031
20
94.6844417
11
219.4332031
21
117.8031917
0
LINE
8
front_labelLayer
10
219.4332031
20
117.8031917
11
222.3230469
21
117.8031917
0
LINE
8
front_labelLayer
10
222.3230469
20
117.8031917
11
222.7238281
21
113.5211605
0
LINE
8
front_labelLayer
10
222.7238281
20
113.5211605
11
222.8925781
21
113.5211605
0
ARC
8
front_labelLayer
10
230.0160188
20
102.1499885
40
16.0751184
50
84.9922892
51
90.1281019
0
ARC
8
front_labelLayer
10
230.4020614
20
106.4751853
40
11.7327356
50
78.4892023
51
85.0265876
0
ARC
8
front_labelLayer
10
228.9036897
20
99.6602486
40
15.4322529
50
77.4453754
51
81.6360491
0
ARC
8
front_labelLayer
10
229.5760382
20
104.2947046
40
10.7492924
50
81.5884333
51
87.1916471
0
ARC
8
front_labelLayer
10
229.7220814
20
106.8272313
40
8.2126806
50
87.3436353
51
89.9660126
0
ARC
8
front_labelLayer
10
229.6881483
20
108.9728629
40
6.0671717
50
89.6335414
51
137.0880789
0
ARC
8
front_labelLayer
10
231.1770067
20
107.2985708
40
8.3003156
50
135.6208593
51
138.8377473
0
ARC
8
front_labelLayer
10
230.9589595
20
107.5114162
40
7.996083
50
138.9575766
51
174.5422212
0
ARC
8
front_labelLayer
10
233.5631068
20
107.1039418
40
10.6283538
50
173.6907556
51
180.0882757
0
ARC
8
front_labelLayer
10
233.1949155
20
107.7168713
40
11.824886
50
139.4139292
51
150.6032911
0
ARC
8
front_labelLayer
10
231.0747085
20
109.533667
40
9.0327498
50
124.2321453
51
139.4161086
0
ARC
8
front_labelLayer
10
229.9410522
20
111.244917
40
6.9802589
50
89.6796633
51
124.4405665
0
ARC
8
front_labelLayer
10
238.9356618
20
106.1429775
40
18.0870148
50
349.1761948
51
0.3862603
0
ARC
8
front_labelLayer
10
245.0251368
20
104.9290304
40
11.8780096
50
330.2507089
51
349.4116453
0
ARC
8
front_labelLayer
10
246.8991746
20
103.9549794
40
9.7679941
50
318.1439687
51
329.7566235
0
ARC
8
front_labelLayer
10
247.2374048
20
103.6839209
40
9.3352359
50
278.8959192
51
317.9979119
0
ARC
8
front_labelLayer
10
246.3659013
20
107.8593693
40
13.5969316
50
269.750282
51
279.8033253
0
ARC
8
front_labelLayer
10
246.2245584
20
105.5067665
40
11.2444993
50
253.5436968
51
270.4182493
0
ARC
8
front_labelLayer
10
245.8502487
20
104.0588449
40
9.7499887
50
238.8115454
51
253.2428391
0
ARC
8
front_labelLayer
10
245.7294498
20
103.8159207
40
9.4796449
50
207.7947
51
238.6757965
0
ARC
8
front_labelLayer
10
247.4630293
20
104.8776413
40
11.5090405
50
205.6560489
51
208.4461146
0
ARC
8
front_labelLayer
10
248.7980322
20
105.433875
40
12.9534825
50
188.9102494
51
205.3171464
0
ARC
8
front_labelLayer
10
253.2976311
20
106.1959611
40
17.5169075
50
179.7744739
51
189.0932867
0
ARC
8
front_labelLayer
10
253.9613802
20
106.3880532
40
18.1809379
50
169.2442972
51
180.3880774
0
ARC
8
front_labelLayer
10
247.7872802
20
107.6084481
40
11.887645
50
150.711153
51
169.4695403
0
ARC
8
front_labelLayer
10
245.8163052
20
108.6206169
40
9.6738076
50
138.1759427
51
150.2287477
0
ARC
8
front_labelLayer
10
245.4884554
20
108.8722019
40
9.2617792
50
99.1759382
51
137.9832717
0
ARC
8
front_labelLayer
10
246.3908351
20
104.6254989
40
13.5997159
50
89.732634
51
100.0759796
0
ARC
8
front_labelLayer
10
246.5711903
20
106.4595135
40
11.7661339
50
73.5222705
51
90.5692278
0
ARC
8
front_labelLayer
10
247.2612038
20
108.9665135
40
9.1665122
50
41.144568
51
73.2133829
0
ARC
8
front_labelLayer
10
245.9440221
20
107.8344142
40
10.9033049
50
13.5014371
51
41.0703422
0
ARC
8
front_labelLayer
10
240.8551123
20
106.5027137
40
16.1628423
50
1.127718
51
13.8800048
0
ARC
8
front_labelLayer
10
236.4717849
20
106.2678156
40
20.5504809
50
359.9919002
51
1.5419806
0
ARC
8
front_labelLayer
10
257.140615
20
106.1739138
40
17.7318642
50
179.7059673
51
187.9160734
0
ARC
8
front_labelLayer
10
250.6371183
20
105.2396958
40
11.1617167
50
187.7639319
51
200.0976799
0
ARC
8
front_labelLayer
10
247.0543607
20
103.9269703
40
7.346039
50
200.0845916
51
216.9131624
0
ARC
8
front_labelLayer
10
245.7460682
20
102.9927881
40
5.7390561
50
217.3009562
51
261.7099084
0
ARC
8
front_labelLayer
10
246.3534235
20
105.8910302
40
8.6965135
50
260.5033217
51
270.2476715
0
ARC
8
front_labelLayer
10
246.4693491
20
105.3274504
40
8.1332297
50
269.4481594
51
284.725567
0
ARC
8
front_labelLayer
10
247.1132086
20
102.939583
40
5.6601525
50
284.5662293
51
322.633383
0
ARC
8
front_labelLayer
10
245.6078326
20
104.0271502
40
7.5167976
50
323.008925
51
342.6390531
0
ARC
8
front_labelLayer
10
241.3021302
20
105.4343787
40
12.0463939
50
342.3615676
51
353.7537573
0
ARC
8
front_labelLayer
10
234.9497983
20
106.2000707
40
18.4444563
50
353.5363027
51
0.2014183
0
ARC
8
front_labelLayer
10
235.9230356
20
106.3540818
40
17.4713326
50
359.7075687
51
7.8972661
0
ARC
8
front_labelLayer
10
242.3215355
20
107.2713649
40
11.0075232
50
7.7439896
51
20.0690154
0
ARC
8
front_labelLayer
10
245.8870287
20
108.5797672
40
7.2095481
50
20.0256974
51
37.435057
0
ARC
8
front_labelLayer
10
247.0700239
20
109.4192038
40
5.7601775
50
37.9577631
51
80.4006175
0
ARC
8
front_labelLayer
10
246.397764
20
106.4196503
40
8.8313332
50
79.3453399
51
90.3174871
0
ARC
8
front_labelLayer
10
246.2732852
20
106.9178783
40
8.333312
50
89.4805967
51
103.8805051
0
ARC
8
front_labelLayer
10
245.5730713
20
109.5842892
40
5.5769298
50
103.4685217
51
142.3118904
0
ARC
8
front_labelLayer
10
246.9343378
20
108.626949
40
7.2398355
50
142.9025682
51
162.3749688
0
ARC
8
front_labelLayer
10
251.22371
20
107.1975253
40
11.7608398
50
162.0653132
51
173.1674833
0
ARC
8
front_labelLayer
10
257.9119739
20
106.3444779
40
18.5031605
50
173.0086206
51
180.2463845
0
LINE
8
front_labelLayer
10
282.4824219
20
94.6844417
11
278.9808594
21
94.6844417
0
LINE
8
front_labelLayer
10
278.9808594
20
94.6844417
11
278.9808594
21
109.6399105
0
LINE
8
front_labelLayer
10
266.6621094
20
106.813348
11
266.6621094
21
94.6844417
0
LINE
8
front_labelLayer
10
266.6621094
20
94.6844417
11
263.1605469
21
94.6844417
0
LINE
8
front_labelLayer
10
263.1605469
20
94.6844417
11
263.1605469
21
117.8031917
0
LINE
8
front_labelLayer
10
263.1605469
20
117.8031917
11
266.0082031
21
117.8031917
0
LINE
8
front_labelLayer
10
266.0082031
20
117.8031917
11
266.5777344
21
114.6391292
0
LINE
8
front_labelLayer
10
266.5777344
20
114.6391292
11
266.7464844
21
114.6391292
0
LINE
8
front_labelLayer
10
282.4824219
20
109.766473
11
282.4824219
21
94.6844417
0
ARC
8
front_labelLayer
10
269.0829716
20
109.6966738
40
9.8980505
50
359.6714181
51
8.6877176
0
ARC
8
front_labelLayer
10
272.7514703
20
110.2784712
40
6.1837989
50
8.4931497
51
22.6579786
0
ARC
8
front_labelLayer
10
274.6153234
20
111.0530294
40
4.165415
50
22.702441
51
42.3419458
0
ARC
8
front_labelLayer
10
274.824832
20
111.1472728
40
3.9477279
50
43.3790931
51
71.5386049
0
ARC
8
front_labelLayer
10
274.0413872
20
108.9581234
40
6.272506
50
71.0828085
51
84.3691117
0
ARC
8
front_labelLayer
10
273.6897091
20
105.9680486
40
9.2828317
50
84.0197814
51
90.151064
0
ARC
8
front_labelLayer
10
273.5900132
20
104.653495
40
10.5976199
50
89.5933154
51
100.3717932
0
ARC
8
front_labelLayer
10
272.8410884
20
108.5828583
40
6.597694
50
100.1176485
51
118.1602553
0
ARC
8
front_labelLayer
10
272.0863571
20
110.0628227
40
4.9368348
50
118.5439316
51
139.1926869
0
ARC
8
front_labelLayer
10
272.7444448
20
109.6212381
40
5.7243343
50
140.1519209
51
160.3146325
0
ARC
8
front_labelLayer
10
276.718363
20
108.1327775
40
9.9675965
50
159.9534332
51
171.3801112
0
ARC
8
front_labelLayer
10
283.2098405
20
107.0892945
40
16.5422488
50
171.1765793
51
178.321764
0
ARC
8
front_labelLayer
10
289.0941083
20
106.8226155
40
22.4320007
50
178.0810692
51
180.0236711
0
ARC
8
front_labelLayer
10
272.7364403
20
110.8454921
40
7.0902225
50
116.9442903
51
147.652568
0
ARC
8
front_labelLayer
10
273.4746531
20
109.6107141
40
8.526034
50
115.8072207
51
117.6067083
0
ARC
8
front_labelLayer
10
273.8517324
20
108.731424
40
9.4818855
50
94.3226729
51
115.5454321
0
ARC
8
front_labelLayer
10
274.0786836
20
106.7596122
40
11.4654576
50
89.9578942
51
94.7108801
0
ARC
8
front_labelLayer
10
274.1724843
20
104.4005746
40
13.8247558
50
80.558535
51
90.353833
0
ARC
8
front_labelLayer
10
275.0364441
20
109.4049589
40
8.7464945
50
65.1094214
51
80.7638192
0
ARC
8
front_labelLayer
10
276.0463777
20
111.6419318
40
6.2922905
50
46.5584415
51
64.878246
0
ARC
8
front_labelLayer
10
276.1272038
20
111.8749452
40
6.0683773
50
19.3848833
51
45.5997105
0
ARC
8
front_labelLayer
10
272.6164611
20
110.5576532
40
9.8176269
50
6.9633597
51
19.8363414
0
ARC
8
front_labelLayer
10
267.2017615
20
109.8296409
40
15.2807908
50
359.7631493
51
7.2115552
0
LINE
8
front_labelLayer
10
300.3066406
20
97.5742855
11
300.3066406
21
94.8953792
0
LINE
8
front_labelLayer
10
289.9285156
20
101.328973
11
289.9285156
21
115.082098
0
LINE
8
front_labelLayer
10
289.9285156
20
115.082098
11
286.6167969
21
115.082098
0
LINE
8
front_labelLayer
10
286.6167969
20
115.082098
11
286.6167969
21
116.769598
0
LINE
8
front_labelLayer
10
286.6167969
20
116.769598
11
289.9285156
21
118.2250667
0
LINE
8
front_labelLayer
10
289.9285156
20
118.2250667
11
291.4050781
21
123.1610042
0
LINE
8
front_labelLayer
10
291.4050781
20
123.1610042
11
293.4300781
21
123.1610042
0
LINE
8
front_labelLayer
10
293.4300781
20
123.1610042
11
293.4300781
21
117.8031917
0
LINE
8
front_labelLayer
10
293.4300781
20
117.8031917
11
300.1378906
21
117.8031917
0
LINE
8
front_labelLayer
10
300.1378906
20
117.8031917
11
300.1378906
21
115.082098
0
LINE
8
front_labelLayer
10
300.1378906
20
115.082098
11
293.4300781
21
115.082098
0
LINE
8
front_labelLayer
10
293.4300781
20
115.082098
11
293.4300781
21
101.4766292
0
ARC
8
front_labelLayer
10
297.1665914
20
108.6519926
40
11.4996072
50
269.8803557
51
278.3028355
0
ARC
8
front_labelLayer
10
297.2760749
20
107.7575347
40
10.598735
50
278.4154323
51
279.0080161
0
ARC
8
front_labelLayer
10
295.9857979
20
116.0001873
40
18.9417554
50
278.9589813
51
280.5104494
0
ARC
8
front_labelLayer
10
297.2154785
20
109.4022314
40
12.2301915
50
280.4847605
51
282.6268532
0
ARC
8
front_labelLayer
10
298.2939062
20
104.6111317
40
7.3192242
50
282.5876494
51
285.5794995
0
ARC
8
front_labelLayer
10
298.8344163
20
102.6232532
40
5.259232
50
285.7237814
51
286.2561119
0
ARC
8
front_labelLayer
10
298.8345025
20
98.0090306
40
3.4441277
50
287.9887836
51
295.3048412
0
ARC
8
front_labelLayer
10
298.0037585
20
100.5224224
40
6.0912326
50
283.3069768
51
288.1197364
0
ARC
8
front_labelLayer
10
297.1262531
20
104.1827817
40
9.8552949
50
280.0069847
51
283.3735247
0
ARC
8
front_labelLayer
10
296.5389774
20
107.3698362
40
13.0959362
50
279.1863328
51
280.114316
0
ARC
8
front_labelLayer
10
296.1786666
20
109.4192646
40
15.1766282
50
275.5260319
51
279.2939547
0
ARC
8
front_labelLayer
10
296.5848069
20
105.1771395
40
10.9151085
50
270.8932507
51
275.5483693
0
ARC
8
front_labelLayer
10
296.6358499
20
103.2365216
40
8.9739548
50
270.0030529
51
270.7605548
0
ARC
8
front_labelLayer
10
296.4950287
20
103.4070416
40
9.1455665
50
253.7847945
51
270.8852574
0
ARC
8
front_labelLayer
10
295.4115227
20
99.7118738
40
5.2948361
50
190.3817645
51
253.87724
0
ARC
8
front_labelLayer
10
300.9341437
20
101.2050924
40
11.0063253
50
179.3550996
51
192.8477588
0
ARC
8
front_labelLayer
10
300.4809261
20
101.4325306
40
7.0509859
50
179.6416557
51
189.7505891
0
ARC
8
front_labelLayer
10
297.9917935
20
100.9885643
40
4.5226489
50
189.547962
51
205.7873651
0
ARC
8
front_labelLayer
10
296.9688559
20
100.516854
40
3.3964321
50
206.1294163
51
221.4084111
0
ARC
8
front_labelLayer
10
296.8541651
20
100.4298288
40
3.2528692
50
221.5949226
51
262.3505145
0
ARC
8
front_labelLayer
10
297.126952
20
101.8326068
40
4.6802224
50
261.3266259
51
270.1912965
0
LINE
8
left_outsideCutPath
10
511
20
219
11
511
21
188.625
0
LINE
8
left_outsideCutPath
10
511
20
188.625
11
505
21
188.625
0
LINE
8
left_outsideCutPath
10
505
20
188.625
11
505
21
136.875
0
LINE
8
left_outsideCutPath
10
505
20
136.875
11
511
21
136.875
0
LINE
8
left_outsideCutPath
10
511
20
136.875
11
511
21
85.125
0
LINE
8
left_outsideCutPath
10
511
20
85.125
11
505
21
85.125
0
LINE
8
left_outsideCutPath
10
505
20
85.125
11
505
21
33.375
0
LINE
8
left_outsideCutPath
10
505
20
33.375
11
511
21
33.375
0
LINE
8
left_outsideCutPath
10
511
20
33.375
11
511
21
3
0
LINE
8
left_outsideCutPath
10
511
20
3
11
552.125
21
3
0
LINE
8
left_outsideCutPath
10
552.125
20
3
11
552.125
21
9
0
LINE
8
left_outsideCutPath
10
552.125
20
9
11
603.875
21
9
0
LINE
8
left_outsideCutPath
10
603.875
20
9
11
603.875
21
3
0
LINE
8
left_outsideCutPath
10
603.875
20
3
11
645
21
3
0
LINE
8
left_outsideCutPath
10
645
20
3
11
645
21
33.375
0
LINE
8
left_outsideCutPath
10
645
20
33.375
11
651
21
33.375
0
LINE
8
left_outsideCutPath
10
651
20
33.375
11
651
21
85.125
0
LINE
8
left_outsideCutPath
10
651
20
85.125
11
645
21
85.125
0
LINE
8
left_outsideCutPath
10
645
20
85.125
11
645
21
136.875
0
LINE
8
left_outsideCutPath
10
645
20
136.875
11
651
21
136.875
0
LINE
8
left_outsideCutPath
10
651
20
136.875
11
651
21
188.625
0
LINE
8
left_outsideCutPath
10
651
20
188.625
11
645
21
188.625
0
LINE
8
left_outsideCutPath
10
645
20
188.625
11
645
21
219
0
LINE
8
left_outsideCutPath
10
645
20
219
11
511
21
219
0
LINE
8
left_labelLayer
10
559.9424804
20
122.1570474
11
559.9424804
21
99.9718912
0
LINE
8
left_labelLayer
10
559.9424804
20
99.9718912
11
557.5756836
21
99.9718912
0
LINE
8
left_labelLayer
10
557.5756836
20
99.9718912
11
557.5756836
21
122.1570474
0
LINE
8
left_labelLayer
10
557.5756836
20
122.1570474
11
559.9424804
21
122.1570474
0
LINE
8
left_labelLayer
10
577.3084961
20
108.8545084
11
577.3084961
21
107.3574381
0
LINE
8
left_labelLayer
10
577.3084961
20
107.3574381
11
566.5438476
21
107.3574381
0
LINE
8
left_labelLayer
10
576.6383789
20
102.8091959
11
576.6383789
21
100.6990396
0
LINE
8
left_labelLayer
10
566.6008789
20
109.2822427
11
574.7706054
21
109.2822427
0
ARC
8
left_labelLayer
10
571.484774
20
108.8836605
40
9.1972548
50
256.0087864
51
270.4848205
0
ARC
8
left_labelLayer
10
570.8150342
20
106.283595
40
6.5124354
50
223.5465812
51
256.1956953
0
ARC
8
left_labelLayer
10
571.1844998
20
106.5521266
40
6.9654903
50
194.0877285
51
223.0538122
0
ARC
8
left_labelLayer
10
574.5698057
20
107.4778839
40
10.4745772
50
181.3574554
51
194.4919983
0
ARC
8
left_labelLayer
10
577.6105038
20
107.6541828
40
13.5190001
50
179.9886869
51
181.7991434
0
ARC
8
left_labelLayer
10
576.5192288
20
107.7402185
40
12.4280045
50
168.9539286
51
180.38434
0
ARC
8
left_labelLayer
10
572.4602974
20
108.5666853
40
8.2859893
50
149.4070994
51
169.1853736
0
ARC
8
left_labelLayer
10
571.3293982
20
109.1642054
40
7.0086741
50
140.1055998
51
148.9067385
0
ARC
8
left_labelLayer
10
570.6346333
20
109.8047486
40
6.064976
50
92.4762689
51
140.5386353
0
ARC
8
left_labelLayer
10
570.9442278
20
107.5168234
40
8.3667882
50
89.9638157
51
93.9176117
0
ARC
8
left_labelLayer
10
571.0180999
20
108.6732105
40
7.2107256
50
74.2125906
51
90.5450036
0
ARC
8
left_labelLayer
10
571.4697302
20
110.3372133
40
5.4866481
50
41.2064625
51
74.0232697
0
ARC
8
left_labelLayer
10
570.6144316
20
109.5970145
40
6.6177515
50
11.5994193
51
41.1496047
0
ARC
8
left_labelLayer
10
567.6756441
20
108.9192732
40
9.6330698
50
359.6147872
51
12.0336371
0
ARC
8
left_labelLayer
10
576.0413955
20
107.5472138
40
9.4994437
50
181.1447062
51
190.8007135
0
ARC
8
left_labelLayer
10
572.6900965
20
106.8862413
40
6.0836884
50
190.6005684
51
206.0275294
0
ARC
8
left_labelLayer
10
571.2073693
20
106.1852733
40
4.443796
50
206.2950286
51
222.555797
0
ARC
8
left_labelLayer
10
571.0759866
20
106.1164849
40
4.3006645
50
223.0645165
51
258.1401323
0
ARC
8
left_labelLayer
10
571.5990205
20
108.2701304
40
6.5161978
50
257.5311793
51
270.4319424
0
ARC
8
left_labelLayer
10
571.6048596
20
114.2544027
40
12.5003599
50
270.1983983
51
292.2090378
0
ARC
8
left_labelLayer
10
571.0042105
20
115.9792243
40
14.3245768
50
291.8255625
51
293.1613501
0
ARC
8
left_labelLayer
10
570.9758405
20
113.7305859
40
14.2086431
50
287.9022873
51
293.4861722
0
ARC
8
left_labelLayer
10
572.0065312
20
110.5505272
40
10.8657278
50
281.9935855
51
287.8851292
0
ARC
8
left_labelLayer
10
572.2563313
20
109.6527172
40
9.9357751
50
275.9054587
51
281.660387
0
ARC
8
left_labelLayer
10
571.7562645
20
114.3203966
40
14.6301437
50
271.9119705
51
275.9726933
0
ARC
8
left_labelLayer
10
571.5737252
20
118.9697751
40
19.2830434
50
269.9669367
51
271.9931344
0
ARC
8
left_labelLayer
10
570.8755785
20
109.2364919
40
4.6655032
50
89.4422301
51
106.2089746
0
ARC
8
left_labelLayer
10
570.5948997
20
110.2598924
40
3.6044701
50
106.4657199
51
137.9176289
0
ARC
8
left_labelLayer
10
571.3996236
20
109.5532122
40
4.6753612
50
138.0994813
51
160.5866249
0
ARC
8
left_labelLayer
10
573.4681604
20
108.7922323
40
6.8792933
50
160.3353337
51
172.5315159
0
ARC
8
left_labelLayer
10
575.5046675
20
108.4659168
40
8.9411319
50
172.1544576
51
174.7615964
0
ARC
8
left_labelLayer
10
566.7055341
20
109.3280587
40
8.0652015
50
359.6745187
51
8.922455
0
ARC
8
left_labelLayer
10
569.5874072
20
109.7976154
40
5.1454023
50
8.7342313
51
23.2771784
0
ARC
8
left_labelLayer
10
570.9555504
20
110.3719242
40
3.6616888
50
23.482161
51
39.7071896
0
ARC
8
left_labelLayer
10
571.2916204
20
110.6234132
40
3.2425457
50
40.082288
51
80.62432
0
ARC
8
left_labelLayer
10
570.9457009
20
109.0377269
40
4.8641099
50
79.6468406
51
90.2910067
0
LINE
8
left_labelLayer
10
588.3868164
20
115.5984537
11
588.3868164
21
113.7591959
0
LINE
8
left_labelLayer
10
588.3868164
20
113.7591959
11
584.4088867
21
113.7591959
0
LINE
8
left_labelLayer
10
584.4088867
20
113.7591959
11
584.4088867
21
99.9718912
0
LINE
8
left_labelLayer
10
584.4088867
20
99.9718912
11
582.0420898
21
99.9718912
0
LINE
8
left_labelLayer
10
582.0420898
20
99.9718912
11
582.0420898
21
113.7591959
0
LINE
8
left_labelLayer
10
582.0420898
20
113.7591959
11
579.2475586
21
113.7591959
0
LINE
8
left_labelLayer
10
579.2475586
20
113.7591959
11
579.2475586
21
114.8285318
0
LINE
8
left_labelLayer
10
579.2475586
20
114.8285318
11
582.0420898
21
115.6840006
0
LINE
8
left_labelLayer
10
582.0420898
20
115.6840006
11
582.0420898
21
116.5537271
0
LINE
8
left_labelLayer
10
589.9836914
20
121.8148599
11
589.3706054
21
119.9185709
0
LINE
8
left_labelLayer
10
584.4088867
20
116.6107584
11
584.4088867
21
115.5984537
0
LINE
8
left_labelLayer
10
584.4088867
20
115.5984537
11
588.3868164
21
115.5984537
0
ARC
8
left_labelLayer
10
591.6338879
20
116.6640002
40
9.5924319
50
167.5775985
51
180.6586778
0
ARC
8
left_labelLayer
10
587.123214
20
117.7156278
40
4.9614615
50
141.7433879
51
168.2322054
0
ARC
8
left_labelLayer
10
586.3887833
20
118.0989456
40
4.1502575
50
98.2551486
51
139.620335
0
ARC
8
left_labelLayer
10
587.0336244
20
115.1200256
40
7.1939773
50
89.6696886
51
99.931431
0
ARC
8
left_labelLayer
10
587.0354232
20
114.6923591
40
7.6216275
50
81.5640856
51
89.7017454
0
ARC
8
left_labelLayer
10
586.4996047
20
110.9541966
40
11.3979664
50
75.973991
51
81.6564725
0
ARC
8
left_labelLayer
10
585.5801358
20
107.1404275
40
15.3209096
50
73.2963646
51
76.0946277
0
ARC
8
left_labelLayer
10
585.8116687
20
108.9903999
40
11.4930828
50
71.9613173
51
76.5918174
0
ARC
8
left_labelLayer
10
586.7033166
20
112.7728413
40
7.6069849
50
76.518348
51
83.0216897
0
ARC
8
left_labelLayer
10
587.0139057
20
115.2705529
40
5.0900436
50
83.076085
51
89.7926726
0
ARC
8
left_labelLayer
10
587.0036846
20
117.1688105
40
3.1918811
50
89.4858988
51
103.4197328
0
ARC
8
left_labelLayer
10
586.7159142
20
118.2743952
40
2.0498292
50
102.7677291
51
144.3380302
0
ARC
8
left_labelLayer
10
587.2956602
20
117.9013828
40
2.7385455
50
145.0688854
51
162.1801582
0
ARC
8
left_labelLayer
10
589.2833735
20
117.2326155
40
4.835638
50
161.8437472
51
171.7847021
0
ARC
8
left_labelLayer
10
592.5254009
20
116.7456718
40
8.1139985
50
171.6527739
51
178.4383478
0
ARC
8
left_labelLayer
10
595.5831072
20
116.6152772
40
11.1742216
50
178.1972746
51
180.0231705
0
LINE
8
left_labelLayer
10
598.4243164
20
101.9252115
11
598.4243164
21
100.1144693
0
LINE
8
left_labelLayer
10
591.4094726
20
104.4631021
11
591.4094726
21
113.7591959
0
LINE
8
left_labelLayer
10
591.4094726
20
113.7591959
11
589.1709961
21
113.7591959
0
LINE
8
left_labelLayer
10
589.1709961
20
113.7591959
11
589.1709961
21
114.8998209
0
LINE
8
left_labelLayer
10
589.1709961
20
114.8998209
11
591.4094726
21
115.8836099
0
LINE
8
left_labelLayer
10
591.4094726
20
115.8836099
11
592.4075195
21
119.2199381
0
LINE
8
left_labelLayer
10
592.4075195
20
119.2199381
11
593.7762695
21
119.2199381
0
LINE
8
left_labelLayer
10
593.7762695
20
119.2199381
11
593.7762695
21
115.5984537
0
LINE
8
left_labelLayer
10
593.7762695
20
115.5984537
11
598.3102539
21
115.5984537
0
LINE
8
left_labelLayer
10
598.3102539
20
115.5984537
11
598.3102539
21
113.7591959
0
LINE
8
left_labelLayer
10
598.3102539
20
113.7591959
11
593.7762695
21
113.7591959
0
LINE
8
left_labelLayer
10
593.7762695
20
113.7591959
11
593.7762695
21
104.5629068
0
ARC
8
left_labelLayer
10
596.3018744
20
109.41294
40
7.7729017
50
269.8803655
51
278.3028246
0
ARC
8
left_labelLayer
10
596.3758349
20
108.808484
40
7.1641149
50
278.4156009
51
279.0081719
0
ARC
8
left_labelLayer
10
595.5038061
20
114.3794081
40
12.8028704
50
278.9589615
51
280.5104724
0
ARC
8
left_labelLayer
10
596.3348698
20
109.9202913
40
8.2669727
50
280.4847673
51
282.6267902
0
ARC
8
left_labelLayer
10
597.0638248
20
106.6817114
40
4.9473708
50
282.5877284
51
285.5795074
0
ARC
8
left_labelLayer
10
597.4290303
20
105.3384932
40
3.5554305
50
285.724025
51
286.2562688
0
ARC
8
left_labelLayer
10
597.4292481
20
102.2190941
40
2.3280048
50
287.988856
51
295.3048206
0
ARC
8
left_labelLayer
10
596.86775
20
103.9178974
40
4.117184
50
283.3069392
51
288.1197432
0
ARC
8
left_labelLayer
10
596.2746316
20
106.3919585
40
6.6613403
50
280.0069614
51
283.3735565
0
ARC
8
left_labelLayer
10
595.8780811
20
108.5437893
40
8.8493578
50
279.1861829
51
280.1144308
0
ARC
8
left_labelLayer
10
595.6340959
20
109.9316609
40
10.2583983
50
275.5260553
51
279.2939333
0
ARC
8
left_labelLayer
10
595.9086289
20
107.0642309
40
7.3778582
50
270.8932726
51
275.5483574
0
ARC
8
left_labelLayer
10
595.9431236
20
105.7538359
40
6.067101
50
270.0031487
51
270.7604793
0
ARC
8
left_labelLayer
10
595.8479494
20
105.8677248
40
6.1817277
50
253.784797
51
270.8852538
0
ARC
8
left_labelLayer
10
595.1155794
20
103.3700629
40
3.578917
50
190.3817644
51
253.8772387
0
ARC
8
left_labelLayer
10
598.8484628
20
104.3793683
40
7.4394615
50
179.355102
51
192.8477597
0
ARC
8
left_labelLayer
10
598.5421265
20
104.5331004
40
4.7659502
50
179.6416686
51
189.7505889
0
ARC
8
left_labelLayer
10
596.8596552
20
104.2330117
40
3.0569796
50
189.5479609
51
205.7873429
0
ARC
8
left_labelLayer
10
596.1682341
20
103.9141785
40
2.2957519
50
206.1294687
51
221.4083601
0
ARC
8
left_labelLayer
10
596.0906986
20
103.8553469
40
2.1986983
50
221.5949173
51
262.3505152
0
ARC
8
left_labelLayer
10
596.2750828
20
104.8035208
40
3.1634833
50
261.3266181
51
270.1912898
0
LINE
8
back_outsideCutPath
10
0
20
438
11
0
21
407.625
0
LINE
8
back_outsideCutPath
10
0
20
407.625
11
6
21
407.625
0
LINE
8
back_outsideCutPath
10
6
20
407.625
11
6
21
355.875
0
LINE
8
back_outsideCutPath
10
6
20
355.875
11
0
21
355.875
0
LINE
8
back_outsideCutPath
10
0
20
355.875
11
0
21
304.125
0
LINE
8
back_outsideCutPath
10
0
20
304.125
11
6
21
304.125
0
LINE
8
back_outsideCutPath
10
6
20
304.125
11
6
21
252.375
0
LINE
8
back_outsideCutPath
10
6
20
252.375
11
0
21
252.375
0
LINE
8
back_outsideCutPath
10
0
20
252.375
11
0
21
222
0
LINE
8
back_outsideCutPath
10
0
20
222
11
69.875
21
222
0
LINE
8
back_outsideCutPath
10
69.875
20
222
11
69.875
21
228
0
LINE
8
back_outsideCutPath
10
69.875
20
228
11
121.625
21
228
0
LINE
8
back_outsideCutPath
10
121.625
20
228
11
121.625
21
222
0
LINE
8
back_outsideCutPath
10
121.625
20
222
11
173.375
21
222
0
LINE
8
back_outsideCutPath
10
173.375
20
222
11
173.375
21
228
0
LINE
8
back_outsideCutPath
10
173.375
20
228
11
225.125
21
228
0
LINE
8
back_outsideCutPath
10
225.125
20
228
11
225.125
21
222
0
LINE
8
back_outsideCutPath
10
225.125
20
222
11
276.875
21
222
0
LINE
8
back_outsideCutPath
10
276.875
20
222
11
276.875
21
228
0
LINE
8
back_outsideCutPath
10
276.875
20
228
11
328.625
21
228
0
LINE
8
back_outsideCutPath
10
328.625
20
228
11
328.625
21
222
0
LINE
8
back_outsideCutPath
10
328.625
20
222
11
380.375
21
222
0
LINE
8
back_outsideCutPath
10
380.375
20
222
11
380.375
21
228
0
LINE
8
back_outsideCutPath
10
380.375
20
228
11
432.125
21
228
0
LINE
8
back_outsideCutPath
10
432.125
20
228
11
432.125
21
222
0
LINE
8
back_outsideCutPath
10
432.125
20
222
11
483.875
21
222
0
LINE
8
back_outsideCutPath
10
483.875
20
222
11
502
21
222
0
LINE
8
back_outsideCutPath
10
502
20
222
11
502
21
252.375
0
LINE
8
back_outsideCutPath
10
502
20
252.375
11
496
21
252.375
0
LINE
8
back_outsideCutPath
10
496
20
252.375
11
496
21
304.125
0
LINE
8
back_outsideCutPath
10
496
20
304.125
11
502
21
304.125
0
LINE
8
back_outsideCutPath
10
502
20
304.125
11
502
21
355.875
0
LINE
8
back_outsideCutPath
10
502
20
355.875
11
496
21
355.875
0
LINE
8
back_outsideCutPath
10
496
20
355.875
11
496
21
407.625
0
LINE
8
back_outsideCutPath
10
496
20
407.625
11
502
21
407.625
0
LINE
8
back_outsideCutPath
10
502
20
407.625
11
502
21
438
0
LINE
8
back_outsideCutPath
10
502
20
438
11
0
21
438
0
LINE
8
back_labelLayer
10
209.7195313
20
316.774457
11
209.4664063
21
316.774457
0
LINE
8
back_labelLayer
10
209.4664063
20
316.774457
11
208.728125
21
313.8002383
0
LINE
8
back_labelLayer
10
208.728125
20
313.8002383
11
206.2179688
21
313.8002383
0
LINE
8
back_labelLayer
10
206.2179688
20
313.8002383
11
206.2179688
21
346.6221133
0
LINE
8
back_labelLayer
10
206.2179688
20
346.6221133
11
209.7195313
21
346.6221133
0
LINE
8
back_labelLayer
10
209.7195313
20
346.6221133
11
209.7195313
21
338.6486758
0
LINE
8
back_labelLayer
10
209.5507813
20
333.8393008
11
209.7195313
21
333.8393008
0
ARC
8
back_labelLayer
10
217.0808227
20
326.5971997
40
10.7019917
50
74.2393301
51
90.5623745
0
ARC
8
back_labelLayer
10
217.7884759
20
329.1932526
40
8.011362
50
38.5631292
51
74.0670407
0
ARC
8
back_labelLayer
10
215.9673661
20
327.7772347
40
10.3180777
50
16.4709316
51
38.4075243
0
ARC
8
back_labelLayer
10
210.72102
20
326.1321362
40
15.8158227
50
5.1338513
51
16.7973347
0
ARC
8
back_labelLayer
10
204.0979861
20
325.4285937
40
22.4755023
50
359.8779246
51
5.4093574
0
ARC
8
back_labelLayer
10
206.0433351
20
325.2595812
40
20.5304597
50
350.6562773
51
0.3380362
0
ARC
8
back_labelLayer
10
213.2005792
20
324.0422103
40
13.2705865
50
335.830596
51
350.8254864
0
ARC
8
back_labelLayer
10
216.3489206
20
322.6833436
40
9.8419867
50
321.3161503
51
335.5436087
0
ARC
8
back_labelLayer
10
217.5525624
20
321.7025593
40
8.2894143
50
274.0640055
51
321.4081014
0
ARC
8
back_labelLayer
10
216.9918276
20
325.2544855
40
11.8761331
50
269.922585
51
275.5481566
0
ARC
8
back_labelLayer
10
216.9167314
20
323.9991952
40
10.620996
50
255.7755414
51
270.3185507
0
ARC
8
back_labelLayer
10
216.6136365
20
322.6525802
40
9.241265
50
245.9801656
51
255.5455852
0
ARC
8
back_labelLayer
10
216.0265748
20
321.2873629
40
7.7553284
50
215.5850196
51
245.8361692
0
ARC
8
back_labelLayer
10
136.7147036
20
338.5869578
40
73.0048537
50
358.112321
51
0.0484376
0
ARC
8
back_labelLayer
10
157.0333519
20
337.9047997
40
52.674763
50
355.7238583
51
358.1259028
0
ARC
8
back_labelLayer
10
165.9688494
20
337.2910398
40
43.718409
50
355.4715614
51
355.6528119
0
ARC
8
back_labelLayer
10
216.2497927
20
329.2855737
40
7.9612025
50
95.1835136
51
145.1108988
0
ARC
8
back_labelLayer
10
216.9495537
20
325.3395466
40
11.959158
50
89.8743447
51
96.8145334
0
ARC
8
back_labelLayer
10
216.3962252
20
324.5272237
40
9.8396939
50
89.5731405
51
100.7324211
0
ARC
8
back_labelLayer
10
215.6678115
20
328.2074215
40
6.0883002
50
100.4469344
51
119.6700785
0
ARC
8
back_labelLayer
10
214.9923543
20
329.4702664
40
4.6568287
50
120.1402827
51
142.4249037
0
ARC
8
back_labelLayer
10
216.1098516
20
328.731006
40
5.9940696
50
143.3382453
51
161.2559776
0
ARC
8
back_labelLayer
10
220.7829746
20
327.0718923
40
10.9527082
50
160.8926377
51
171.2334232
0
ARC
8
back_labelLayer
10
228.5841914
20
325.8133729
40
18.8546767
50
171.0667792
51
177.8456909
0
ARC
8
back_labelLayer
10
236.6974145
20
325.4007345
40
26.9778906
50
177.617672
51
180.0425344
0
ARC
8
back_labelLayer
10
232.8713768
20
325.2903006
40
23.1520221
50
179.7762649
51
185.7075288
0
ARC
8
back_labelLayer
10
223.7433631
20
324.3497894
40
13.9757543
50
185.5924799
51
194.2050718
0
ARC
8
back_labelLayer
10
217.8960416
20
322.832204
40
7.9349004
50
193.9430288
51
208.0218491
0
ARC
8
back_labelLayer
10
215.5302105
20
321.6286391
40
5.281202
50
208.5536498
51
217.5605274
0
ARC
8
back_labelLayer
10
215.3374577
20
321.5484693
40
5.0798199
50
218.1690534
51
253.8047091
0
ARC
8
back_labelLayer
10
216.2796622
20
324.4533782
40
8.1327947
50
253.1382332
51
266.8483226
0
ARC
8
back_labelLayer
10
216.5438715
20
327.5692254
40
11.2588351
50
266.3775767
51
270.0510664
0
ARC
8
back_labelLayer
10
216.6285998
20
323.2903289
40
6.980334
50
269.3868908
51
285.8630577
0
ARC
8
back_labelLayer
10
217.1471943
20
321.4160535
40
5.035701
50
286.0162891
51
326.8497372
0
ARC
8
back_labelLayer
10
214.6441868
20
323.0742042
40
8.0380786
50
326.7105069
51
343.6661799
0
ARC
8
back_labelLayer
10
209.9586851
20
324.5059395
40
12.9372448
50
343.4171463
51
353.6369058
0
ARC
8
back_labelLayer
10
202.8817644
20
325.3456646
40
20.0636968
50
353.4934773
51
0.2205457
0
ARC
8
back_labelLayer
10
202.2579619
20
325.5066342
40
20.68752
50
359.7680754
51
6.3095238
0
ARC
8
back_labelLayer
10
210.0504983
20
326.4008735
40
12.8439497
50
6.1648715
51
16.0396326
0
ARC
8
back_labelLayer
10
215.0703658
20
327.8802243
40
7.6108331
50
15.7779495
51
32.0151239
0
ARC
8
back_labelLayer
10
216.6358204
20
328.7767157
40
5.8086217
50
32.7033714
51
35.5242521
0
ARC
8
back_labelLayer
10
217.2082562
20
329.1835795
40
5.1063265
50
35.5408392
51
79.8011248
0
ARC
8
back_labelLayer
10
216.5225286
20
326.2684217
40
8.0983964
50
78.6781244
51
90.3749567
0
LINE
8
back_labelLayer
10
249.5023438
20
313.8002383
11
246.9078125
21
313.8002383
0
LINE
8
back_labelLayer
10
246.9078125
20
313.8002383
11
246.2117188
21
317.0908633
0
LINE
8
back_labelLayer
10
246.2117188
20
317.0908633
11
246.0429688
21
317.0908633
0
LINE
8
back_labelLayer
10
242.1617188
20
327.5322695
11
246.0851563
21
327.658832
0
LINE
8
back_labelLayer
10
246.0851563
20
327.658832
11
246.0851563
21
329.093207
0
LINE
8
back_labelLayer
10
234.63125
20
332.636957
11
233.5554688
21
335.3158633
0
LINE
8
back_labelLayer
10
249.5023438
20
329.5783633
11
249.5023438
21
313.8002383
0
LINE
8
back_labelLayer
10
246.0007813
20
323.0814883
11
246.0007813
21
325.1697695
0
LINE
8
back_labelLayer
10
246.0007813
20
325.1697695
11
242.4992188
21
325.0221133
0
ARC
8
back_labelLayer
10
234.6502458
20
326.0859771
40
14.5157228
50
314.7445057
51
321.7071759
0
ARC
8
back_labelLayer
10
238.2165425
20
322.4623435
40
9.4315611
50
304.848555
51
314.8530774
0
ARC
8
back_labelLayer
10
239.9297071
20
320.0238276
40
6.4514499
50
294.3932811
51
304.7371491
0
ARC
8
back_labelLayer
10
239.3444165
20
321.5403662
40
8.0748727
50
281.2979609
51
293.7313646
0
ARC
8
back_labelLayer
10
238.570696
20
325.2902165
40
11.9036619
50
272.9335073
51
281.4139092
0
ARC
8
back_labelLayer
10
238.314241
20
329.1362275
40
15.7578693
50
269.9539008
51
273.1490929
0
ARC
8
back_labelLayer
10
238.2256527
20
324.1239113
40
10.7458161
50
258.6719688
51
270.4047482
0
ARC
8
back_labelLayer
10
237.4792324
20
320.5533459
40
7.0982594
50
238.3273104
51
258.9183823
0
ARC
8
back_labelLayer
10
236.9648606
20
319.6149352
40
6.0297855
50
227.7689476
51
237.8050128
0
ARC
8
back_labelLayer
10
236.8039702
20
319.390333
40
5.7554308
50
192.0827704
51
227.4520726
0
ARC
8
back_labelLayer
10
239.7712312
20
320.1217904
40
8.8105705
50
179.5457285
51
192.6949317
0
ARC
8
back_labelLayer
10
237.0146687
20
320.4408
40
6.0588563
50
115.4904644
51
182.3568117
0
ARC
8
back_labelLayer
10
240.0490128
20
314.8751843
40
12.393329
50
101.3568232
51
117.0798567
0
ARC
8
back_labelLayer
10
242.4858654
20
303.4875585
40
24.0382927
50
92.4696252
51
101.7064964
0
ARC
8
back_labelLayer
10
243.1862581
20
293.3435259
40
34.2040915
50
91.7164778
51
92.9095791
0
ARC
8
back_labelLayer
10
236.027961
20
329.1470362
40
10.0573393
50
359.6933387
51
8.0035732
0
ARC
8
back_labelLayer
10
239.8324652
20
329.701273
40
6.2127537
50
7.8272551
51
20.6041674
0
ARC
8
back_labelLayer
10
241.985355
20
330.5248604
40
3.9077698
50
20.4094145
51
41.4479377
0
ARC
8
back_labelLayer
10
242.30345
20
330.6997074
40
3.5544903
50
42.7295524
51
71.038028
0
ARC
8
back_labelLayer
10
241.5545558
20
328.6634503
40
5.7237845
50
70.5716255
51
83.9928588
0
ARC
8
back_labelLayer
10
241.1967853
20
325.7573036
40
8.6515689
50
83.650663
51
90.1753185
0
ARC
8
back_labelLayer
10
241.2595442
20
323.0088558
40
11.4003254
50
90.4484656
51
103.7665528
0
ARC
8
back_labelLayer
10
242.6001618
20
317.3554146
40
17.2104388
50
103.622656
51
112.4320052
0
ARC
8
back_labelLayer
10
244.8981403
20
311.5531933
40
23.4506744
50
112.2122263
51
115.9640995
0
ARC
8
back_labelLayer
10
241.2181128
20
321.1055806
40
16.1446043
50
106.3568638
51
118.3349819
0
ARC
8
back_labelLayer
10
241.9057752
20
318.9813743
40
18.3765981
50
104.5162093
51
106.5489652
0
ARC
8
back_labelLayer
10
241.4014713
20
321.0825432
40
16.2161452
50
90.0714471
51
104.6521031
0
ARC
8
back_labelLayer
10
241.4651109
20
322.5102411
40
14.7886724
50
81.5679747
51
90.3249042
0
ARC
8
back_labelLayer
10
242.3201689
20
328.080702
40
9.1530891
50
68.2273574
51
81.7494153
0
ARC
8
back_labelLayer
10
243.5111291
20
331.0439194
40
5.9595063
50
47.8683266
51
68.2934156
0
ARC
8
back_labelLayer
10
243.7044244
20
331.4298699
40
5.544818
50
19.233103
51
46.674124
0
ARC
8
back_labelLayer
10
240.4844375
20
330.2320302
40
8.979943
50
6.3379122
51
19.6815277
0
ARC
8
back_labelLayer
10
235.7245238
20
329.6258145
40
13.7779016
50
359.8026727
51
6.6583464
0
ARC
8
back_labelLayer
10
239.0684599
20
325.9087632
40
9.6408161
50
269.5792071
51
282.0413666
0
ARC
8
back_labelLayer
10
239.7716907
20
322.7895333
40
6.4436179
50
281.7120927
51
306.4593913
0
ARC
8
back_labelLayer
10
240.0835028
20
322.2767325
40
5.846137
50
306.9881383
51
313.8559388
0
ARC
8
back_labelLayer
10
240.0464176
20
322.2660993
40
5.8642633
50
314.1891946
51
347.4269854
0
ARC
8
back_labelLayer
10
237.1088511
20
323.002239
40
8.8919818
50
346.9177676
51
0.2824592
0
ARC
8
back_labelLayer
10
234.8963802
20
323.081404
40
11.1044009
50
359.8177112
51
0.0004352
0
ARC
8
back_labelLayer
10
243.3321383
20
299.3250298
40
25.7105787
50
91.8564782
51
96.4478342
0
ARC
8
back_labelLayer
10
242.1726587
20
309.3583236
40
15.6105631
50
96.3545308
51
102.995332
0
ARC
8
back_labelLayer
10
240.5987659
20
316.0453076
40
8.7409707
50
102.7995409
51
113.2433135
0
ARC
8
back_labelLayer
10
239.3012924
20
319.148369
40
5.3778293
50
113.5886642
51
121.6804971
0
ARC
8
back_labelLayer
10
238.3998376
20
320.5212636
40
3.7363666
50
120.9734093
51
172.4179825
0
ARC
8
back_labelLayer
10
240.1617927
20
320.1693242
40
5.5305784
50
171.21221
51
180.2058202
0
ARC
8
back_labelLayer
10
239.6352102
20
320.1081099
40
5.004131
50
179.5265824
51
192.7787292
0
ARC
8
back_labelLayer
10
237.942405
20
319.6977669
40
3.2625933
50
192.3264505
51
222.0579798
0
ARC
8
back_labelLayer
10
237.81647
20
319.6224489
40
3.1187662
50
222.5804746
51
229.2547145
0
ARC
8
back_labelLayer
10
238.2419793
20
320.1702753
40
3.811701
50
229.7836981
51
254.272422
0
ARC
8
back_labelLayer
10
238.8086763
20
322.0587397
40
5.7831724
50
253.93967
51
266.4533676
0
ARC
8
back_labelLayer
10
238.9895414
20
324.1435469
40
7.8753438
50
266.078316
51
270.0590381
0
LINE
8
back_labelLayer
10
272.1359375
20
336.1385195
11
271.0601563
21
333.1643008
0
LINE
8
back_labelLayer
10
271.7984375
20
317.6814883
11
271.7984375
21
314.580707
0
ARC
8
back_labelLayer
10
265.8437826
20
326.4646269
40
13.0867402
50
256.4243738
51
270.4889854
0
ARC
8
back_labelLayer
10
264.7980292
20
322.3831412
40
8.8740118
50
221.7976316
51
256.8020513
0
ARC
8
back_labelLayer
10
265.8107246
20
323.1313819
40
10.128361
50
196.0166663
51
221.1349201
0
ARC
8
back_labelLayer
10
270.9004323
20
324.6870572
40
15.4499986
50
183.5913735
51
196.3539515
0
ARC
8
back_labelLayer
10
276.6021264
20
325.1893613
40
21.1724509
50
179.9388525
51
183.9815004
0
ARC
8
back_labelLayer
10
274.7495391
20
325.3363469
40
19.320252
50
169.8978429
51
180.3688908
0
ARC
8
back_labelLayer
10
268.023719
20
326.5805241
40
12.4805535
50
153.0875197
51
170.1051356
0
ARC
8
back_labelLayer
10
265.4717925
20
327.799904
40
9.6533143
50
138.6550047
51
152.6853609
0
ARC
8
back_labelLayer
10
264.9955067
20
328.1469886
40
9.0666248
50
101.4912947
51
138.3133874
0
ARC
8
back_labelLayer
10
266.0889482
20
323.5961965
40
13.74502
50
89.5891857
51
102.1787718
0
ARC
8
back_labelLayer
10
266.1730324
20
321.5393294
40
15.8015405
50
77.7702358
51
89.9475409
0
ARC
8
back_labelLayer
10
265.8739525
20
319.8893262
40
17.4775472
50
74.6797004
51
77.9578562
0
ARC
8
back_labelLayer
10
267.489519
20
325.7422397
40
11.4057729
50
70.0945499
51
74.7386218
0
ARC
8
back_labelLayer
10
269.0262298
20
329.953583
40
6.9228398
50
63.503393
51
70.1861633
0
ARC
8
back_labelLayer
10
269.7612958
20
331.4923702
40
5.2178184
50
62.9284757
51
63.1886085
0
ARC
8
back_labelLayer
10
265.3079879
20
318.6880891
40
15.5771675
50
68.3294452
51
74.8831307
0
ARC
8
back_labelLayer
10
264.4862053
20
315.7741651
40
18.6045994
50
74.7801873
51
77.4497494
0
ARC
8
back_labelLayer
10
265.3490004
20
319.8240042
40
14.4640957
50
77.299881
51
81.7345173
0
ARC
8
back_labelLayer
10
265.9783051
20
324.2090214
40
10.0341615
50
81.6909927
51
87.50791
0
ARC
8
back_labelLayer
10
266.0997214
20
326.4782268
40
7.7618558
50
87.674981
51
89.9748753
0
ARC
8
back_labelLayer
10
265.9295419
20
326.4750436
40
7.7669784
50
88.7193982
51
112.5667672
0
ARC
8
back_labelLayer
10
265.3776466
20
328.2997539
40
5.8732793
50
114.4265775
51
161.6632761
0
ARC
8
back_labelLayer
10
270.8601975
20
326.1538267
40
11.7567037
50
160.1418478
51
175.136809
0
ARC
8
back_labelLayer
10
278.4061451
20
325.3064717
40
19.3484033
50
174.5309726
51
180.1549548
0
ARC
8
back_labelLayer
10
276.0155294
20
325.1665761
40
16.957943
50
179.7041314
51
188.0743658
0
ARC
8
back_labelLayer
10
269.9074808
20
324.2729023
40
10.7849556
50
187.9315186
51
200.3885401
0
ARC
8
back_labelLayer
10
266.6048183
20
323.0494362
40
7.2629635
50
200.4183495
51
216.6392631
0
ARC
8
back_labelLayer
10
265.2202531
20
322.0596465
40
5.561387
50
216.969538
51
261.3103016
0
ARC
8
back_labelLayer
10
265.8312864
20
324.9083834
40
8.4715198
50
260.1359455
51
270.2692314
0
ARC
8
back_labelLayer
10
265.8030839
20
331.0947595
40
14.6579602
50
270.2658413
51
286.2891438
0
ARC
8
back_labelLayer
10
264.9119982
20
334.4179209
40
18.0978236
50
286.0460648
51
292.3654013
0
ARC
8
back_labelLayer
10
267.2850988
20
323.4595213
40
9.9600988
50
282.0344291
51
296.945448
0
ARC
8
back_labelLayer
10
266.2607659
20
328.0758066
40
14.6885551
50
272.5980506
51
282.1878357
0
ARC
8
back_labelLayer
10
265.9670244
20
332.5809744
40
19.2026146
50
269.9655207
51
272.8642759
0
LINE
8
back_labelLayer
10
280.5734375
20
325.633832
11
280.7421875
21
325.633832
0
LINE
8
back_labelLayer
10
283.5054688
20
329.008832
11
290.9726563
21
336.9189883
0
LINE
8
back_labelLayer
10
290.9726563
20
336.9189883
11
295.128125
21
336.9189883
0
LINE
8
back_labelLayer
10
295.128125
20
336.9189883
11
285.7625
21
327.068207
0
LINE
8
back_labelLayer
10
285.7625
20
327.068207
11
295.7820313
21
313.8002383
0
LINE
8
back_labelLayer
10
295.7820313
20
313.8002383
11
291.5421875
21
313.8002383
0
LINE
8
back_labelLayer
10
291.5421875
20
313.8002383
11
283.3789063
21
324.7268008
0
LINE
8
back_labelLayer
10
283.3789063
20
324.7268008
11
280.7421875
21
322.4486758
0
LINE
8
back_labelLayer
10
280.7421875
20
322.4486758
11
280.7421875
21
313.8002383
0
LINE
8
back_labelLayer
10
280.7421875
20
313.8002383
11
277.2828125
21
313.8002383
0
LINE
8
back_labelLayer
10
277.2828125
20
313.8002383
11
277.2828125
21
346.6221133
0
LINE
8
back_labelLayer
10
277.2828125
20
346.6221133
11
280.7421875
21
346.6221133
0
LINE
8
back_labelLayer
10
280.7421875
20
346.6221133
11
280.7421875
21
329.2197695
0
ARC
8
back_labelLayer
10
297.6614006
20
313.6577001
40
20.7289051
50
142.3233913
51
144.7075314
0
ARC
8
back_labelLayer
10
308.6999745
20
305.1433953
40
34.6696174
50
140.4331258
51
142.3365739
0
ARC
8
back_labelLayer
10
323.085083
20
293.3019057
40
53.3016178
50
139.2798976
51
140.4703363
0
ARC
8
back_labelLayer
10
339.7176675
20
278.9990467
40
75.2382213
50
138.3417664
51
139.2877336
0
ARC
8
back_labelLayer
10
257.4080952
20
329.2634453
40
23.3341332
50
358.2739131
51
359.8927564
0
ARC
8
back_labelLayer
10
239.2528901
20
329.7694146
40
41.4963613
50
357.5041677
51
358.3306885
0
ARC
8
back_labelLayer
10
212.0860206
20
330.969332
40
68.6897144
50
356.6325148
51
357.4910292
0
ARC
8
back_labelLayer
10
166.9219946
20
333.6034457
40
113.9304866
50
356.0329219
51
356.6442644
0
ARC
8
back_labelLayer
10
136.8801744
20
335.630404
40
144.0405682
50
356.0204116
51
356.0553125
0
LINE
8
right_outsideCutPath
10
511
20
438
11
511
21
407.625
0
LINE
8
right_outsideCutPath
10
511
20
407.625
11
505
21
407.625
0
LINE
8
right_outsideCutPath
10
505
20
407.625
11
505
21
355.875
0
LINE
8
right_outsideCutPath
10
505
20
355.875
11
511
21
355.875
0
LINE
8
right_outsideCutPath
10
511
20
355.875
11
511
21
304.125
0
LINE
8
right_outsideCutPath
10
511
20
304.125
11
505
21
304.125
0
LINE
8
right_outsideCutPath
10
505
20
304.125
11
505
21
252.375
0
LINE
8
right_outsideCutPath
10
505
20
252.375
11
511
21
252.375
0
LINE
8
right_outsideCutPath
10
511
20
252.375
11
511
21
222
0
LINE
8
right_outsideCutPath
10
511
20
222
11
552.125
21
222
0
LINE
8
right_outsideCutPath
10
552.125
20
222
11
552.125
21
228
0
LINE
8
right_outsideCutPath
10
552.125
20
228
11
603.875
21
228
0
LINE
8
right_outsideCutPath
10
603.875
20
228
11
603.875
21
222
0
LINE
8
right_outsideCutPath
10
603.875
20
222
11
645
21
222
0
LINE
8
right_outsideCutPath
10
645
20
222
11
645
21
252.375
0
LINE
8
right_outsideCutPath
10
645
20
252.375
11
651
21
252.375
0
LINE
8
right_outsideCutPath
10
651
20
252.375
11
651
21
304.125
0
LINE
8
right_outsideCutPath
10
651
20
304.125
11
645
21
304.125
0
LINE
8
right_outsideCutPath
10
645
20
304.125
11
645
21
355.875
0
LINE
8
right_outsideCutPath
10
645
20
355.875
11
651
21
355.875
0
LINE
8
right_outsideCutPath
10
651
20
355.875
11
651
21
407.625
0
LINE
8
right_outsideCutPath
10
651
20
407.625
11
645
21
407.625
0
LINE
8
right_outsideCutPath
10
645
20
407.625
11
645
21
438
0
LINE
8
right_outsideCutPath
10
645
20
438
11
511
21
438
0
LINE
8
right_labelLayer
10
556.7915039
20
338.1555548
11
556.4635742
21
335.9598516
0
LINE
8
right_labelLayer
10
550.1616211
20
330.7985235
11
550.1616211
21
322.4149298
0
LINE
8
right_labelLayer
10
550.1616211
20
322.4149298
11
547.7948242
21
322.4149298
0
LINE
8
right_labelLayer
10
547.7948242
20
322.4149298
11
547.7948242
21
338.0414923
0
LINE
8
right_labelLayer
10
547.7948242
20
338.0414923
11
549.7481445
21
338.0414923
0
LINE
8
right_labelLayer
10
549.7481445
20
338.0414923
11
550.0190429
21
335.1471563
0
LINE
8
right_labelLayer
10
550.0190429
20
335.1471563
11
550.1331054
21
335.1471563
0
ARC
8
right_labelLayer
10
554.9480237
20
327.4610769
40
10.8655988
50
84.9922934
51
90.1281016
0
ARC
8
right_labelLayer
10
555.2089598
20
330.3846027
40
7.9304566
50
78.4891964
51
85.0265846
0
ARC
8
right_labelLayer
10
554.1961611
20
325.7781504
40
10.431117
50
77.445386
51
81.6360367
0
ARC
8
right_labelLayer
10
554.650633
20
328.9107928
40
7.265688
50
81.5884188
51
87.1916614
0
ARC
8
right_labelLayer
10
554.7493407
20
330.6224579
40
5.5512619
50
87.3436507
51
89.9659817
0
ARC
8
right_labelLayer
10
554.7264074
20
332.0728442
40
4.1009585
50
89.6335397
51
137.0880791
0
ARC
8
right_labelLayer
10
555.7328414
20
330.941074
40
5.6105035
50
135.6208712
51
138.8376989
0
ARC
8
right_labelLayer
10
555.5853797
20
331.0850152
40
5.4047576
50
138.9575688
51
174.5422284
0
ARC
8
right_labelLayer
10
557.3455832
20
330.8095918
40
7.1839708
50
173.6907472
51
180.0882755
0
ARC
8
right_labelLayer
10
557.0967104
20
331.2238947
40
7.9927327
50
139.4139159
51
150.6032979
0
ARC
8
right_labelLayer
10
555.6636179
20
332.4519081
40
6.1054672
50
124.2321429
51
139.4161125
0
ARC
8
right_labelLayer
10
554.8973514
20
333.6085845
40
4.7181376
50
89.6796589
51
124.4405641
0
LINE
8
right_labelLayer
10
562.0811523
20
338.0414923
11
562.0811523
21
322.4149298
0
LINE
8
right_labelLayer
10
562.0811523
20
322.4149298
11
559.7143554
21
322.4149298
0
LINE
8
right_labelLayer
10
559.7143554
20
322.4149298
11
559.7143554
21
338.0414923
0
LINE
8
right_labelLayer
10
559.7143554
20
338.0414923
11
562.0811523
21
338.0414923
0
ARC
8
right_labelLayer
10
562.137386
20
342.2922886
40
2.6226901
50
170.8451737
51
180.3544802
0
ARC
8
right_labelLayer
10
561.1555664
20
342.4564523
40
1.6272687
50
155.9678986
51
171.0515818
0
ARC
8
right_labelLayer
10
560.6800123
20
342.6674285
40
1.1070175
50
133.7880163
51
155.9171543
0
ARC
8
right_labelLayer
10
560.8555843
20
342.4733256
40
1.3686568
50
92.6446006
51
133.4710558
0
ARC
8
right_labelLayer
10
560.911045
20
342.037719
40
1.8067033
50
89.9693431
51
93.7642142
0
ARC
8
right_labelLayer
10
560.9336214
20
342.4501026
40
1.3944868
50
46.3708325
51
90.8879225
0
ARC
8
right_labelLayer
10
561.0724047
20
342.5933791
40
1.1950226
50
17.7252034
51
46.4473121
0
ARC
8
right_labelLayer
10
560.4252102
20
342.3705116
40
1.8794076
50
4.9428143
51
18.1900496
0
ARC
8
right_labelLayer
10
559.6019019
20
342.2815073
40
2.707381
50
359.8847751
51
5.3181602
0
ARC
8
right_labelLayer
10
559.8605231
20
342.2594334
40
2.4488107
50
349.8345026
51
0.3890828
0
ARC
8
right_labelLayer
10
560.7520307
20
342.0931264
40
1.541959
50
332.6322168
51
350.0705409
0
ARC
8
right_labelLayer
10
561.099024
20
341.9217837
40
1.1550605
50
313.6153792
51
332.2677237
0
ARC
8
right_labelLayer
10
560.9318002
20
342.0740475
40
1.3807438
50
269.1788207
51
314.2807501
0
ARC
8
right_labelLayer
10
560.8963252
20
342.1967954
40
1.5034318
50
250.5000178
51
270.5978212
0
ARC
8
right_labelLayer
10
560.8508284
20
342.0266633
40
1.327944
50
225.1301063
51
249.9001034
0
ARC
8
right_labelLayer
10
560.7795928
20
341.9479712
40
1.2219278
50
197.7933938
51
224.8941643
0
ARC
8
right_labelLayer
10
561.4463162
20
342.1764493
40
1.9266274
50
184.9925236
51
198.2040253
0
ARC
8
right_labelLayer
10
562.3091566
20
342.2702369
40
2.7944166
50
179.8805514
51
185.3686132
0
LINE
8
right_labelLayer
10
574.4854492
20
338.0414923
11
579.8891601
21
338.0414923
0
LINE
8
right_labelLayer
10
579.8891601
20
338.0414923
11
579.8891601
21
336.5444219
0
LINE
8
right_labelLayer
10
579.8891601
20
336.5444219
11
576.9948242
21
336.2022344
0
LINE
8
right_labelLayer
10
571.6624023
20
324.8957891
11
574.4284179
21
324.8957891
0
LINE
8
right_labelLayer
10
573.6727539
20
322.7713751
11
570.8354492
21
322.7713751
0
ARC
8
right_labelLayer
10
573.9786785
20
333.8152952
40
3.8463768
50
29.4584702
51
38.3576425
0
ARC
8
right_labelLayer
10
572.4069886
20
332.9180803
40
5.6561163
50
23.1845395
51
29.5422518
0
ARC
8
right_labelLayer
10
570.9069954
20
332.2528933
40
7.2968824
50
21.2507037
51
23.3488793
0
ARC
8
right_labelLayer
10
573.4564052
20
333.2668089
40
4.5533788
50
6.8504696
51
20.9872057
0
ARC
8
right_labelLayer
10
572.1739743
20
333.0929298
40
5.8474273
50
359.8710881
51
7.0432168
0
ARC
8
right_labelLayer
10
572.5959075
20
333.0233569
40
5.4257725
50
342.5649846
51
0.5957662
0
ARC
8
right_labelLayer
10
573.5965852
20
332.7470334
40
4.3884246
50
310.609775
51
342.0923674
0
ARC
8
right_labelLayer
10
573.0354415
20
333.3997466
40
5.2491893
50
284.9315884
51
310.6222677
0
ARC
8
right_labelLayer
10
572.3332379
20
335.8603662
40
7.8077843
50
272.5334982
51
285.2579699
0
ARC
8
right_labelLayer
10
572.1526952
20
338.3264832
40
10.279719
50
269.9691929
51
272.9312124
0
ARC
8
right_labelLayer
10
572.1302874
20
335.6532382
40
7.6064912
50
263.4836715
51
270.1271528
0
ARC
8
right_labelLayer
10
572.0063899
20
334.476431
40
6.4232345
50
259.4963784
51
263.3904161
0
ARC
8
right_labelLayer
10
572.7732075
20
324.4214755
40
4.2116109
50
117.3935022
51
128.4095529
0
ARC
8
right_labelLayer
10
571.6889774
20
325.7665406
40
2.4840617
50
128.0882088
51
147.1400347
0
ARC
8
right_labelLayer
10
571.1048533
20
326.1585332
40
1.7807504
50
147.5369135
51
180.2592203
0
ARC
8
right_labelLayer
10
570.5507064
20
326.1353162
40
1.226679
50
179.2918685
51
198.3581014
0
ARC
8
right_labelLayer
10
570.3210368
20
326.074956
40
0.9898017
50
199.2291652
51
239.5690992
0
ARC
8
right_labelLayer
10
570.5113465
20
326.3378805
40
1.3132617
50
238.2198963
51
239.8459473
0
ARC
8
right_labelLayer
10
570.6633923
20
326.6506138
40
1.6602497
50
240.7302642
51
254.5026831
0
ARC
8
right_labelLayer
10
571.1165188
20
328.2120724
40
3.2860682
50
254.1637084
51
262.2123489
0
ARC
8
right_labelLayer
10
571.4754523
20
330.71905
40
5.8185823
50
262.0555593
51
267.2082959
0
ARC
8
right_labelLayer
10
571.6488342
20
333.8992179
40
9.0034389
50
267.0919311
51
270.0863447
0
ARC
8
right_labelLayer
10
574.4801566
20
315.2076453
40
9.688282
50
81.5744171
51
90.3059801
0
ARC
8
right_labelLayer
10
575.0115825
20
318.6734873
40
6.1820056
50
68.3671345
51
81.7399342
0
ARC
8
right_labelLayer
10
575.7056756
20
320.4473305
40
4.2772289
50
52.1879573
51
68.2501061
0
ARC
8
right_labelLayer
10
576.191346
20
321.1017385
40
3.4625222
50
8.6201362
51
51.8982492
0
ARC
8
right_labelLayer
10
574.4891532
20
320.741571
40
5.2004497
50
359.7430615
51
9.7326343
0
ARC
8
right_labelLayer
10
574.5653896
20
320.6538402
40
5.1245659
50
340.5268818
51
0.7201607
0
ARC
8
right_labelLayer
10
575.3183111
20
320.4663727
40
4.3528513
50
302.9903688
51
339.5494519
0
ARC
8
right_labelLayer
10
574.5279087
20
321.4707778
40
5.626878
50
303.1869804
51
304.1722655
0
ARC
8
right_labelLayer
10
573.7913332
20
322.7460753
40
7.0978111
50
286.2542237
51
302.528008
0
ARC
8
right_labelLayer
10
572.4508427
20
327.1676363
40
11.7179456
50
276.4939813
51
286.4953592
0
ARC
8
right_labelLayer
10
571.6144601
20
334.1593241
40
18.7594101
50
269.7545052
51
276.6169586
0
ARC
8
right_labelLayer
10
571.4716168
20
328.66048
40
13.2605411
50
262.5634813
51
270.269899
0
ARC
8
right_labelLayer
10
570.8221354
20
323.8465514
40
8.4030683
50
251.2101774
51
262.7064173
0
ARC
8
right_labelLayer
10
569.8860263
20
321.0989415
40
5.5003698
50
235.9668051
51
251.2229081
0
ARC
8
right_labelLayer
10
568.8938281
20
319.6834655
40
3.7721588
50
208.903615
51
236.4231541
0
ARC
8
right_labelLayer
10
568.9849184
20
319.6452846
40
3.8342304
50
182.2079906
51
207.7461496
0
ARC
8
right_labelLayer
10
570.1444783
20
319.7610998
40
4.9978966
50
179.9784844
51
183.0225874
0
ARC
8
right_labelLayer
10
568.7649721
20
319.8264684
40
3.6189471
50
138.3916158
51
181.0052641
0
ARC
8
right_labelLayer
10
569.1471393
20
319.4830136
40
4.1327611
50
113.8121516
51
138.349625
0
ARC
8
right_labelLayer
10
569.872064
20
317.9175939
40
5.8576866
50
102.2870915
51
114.1172644
0
ARC
8
right_labelLayer
10
569.6442752
20
325.8763002
40
2.4564282
50
216.5861547
51
245.4968522
0
ARC
8
right_labelLayer
10
569.9954107
20
326.1742515
40
2.9161186
50
215.4647746
51
217.1747368
0
ARC
8
right_labelLayer
10
569.4101977
20
325.7515724
40
2.1942447
50
182.1767164
51
215.3415652
0
ARC
8
right_labelLayer
10
569.9315564
20
325.8075116
40
2.7175917
50
179.983608
51
182.9377776
0
ARC
8
right_labelLayer
10
569.9204371
20
325.8311675
40
2.7065689
50
161.7225952
51
180.4843222
0
ARC
8
right_labelLayer
10
569.6228505
20
325.9123689
40
2.3985846
50
144.4963245
51
161.3350495
0
ARC
8
right_labelLayer
10
570.4161193
20
325.3211559
40
3.3877802
50
132.725923
51
144.1479467
0
ARC
8
right_labelLayer
10
571.6874844
20
323.9634889
40
5.2477596
50
125.2212707
51
132.8655474
0
ARC
8
right_labelLayer
10
572.9656756
20
322.1885635
40
7.4349577
50
121.2352587
51
125.3794884
0
ARC
8
right_labelLayer
10
570.6997644
20
332.3784364
40
4.1491841
50
215.1640709
51
247.4747904
0
ARC
8
right_labelLayer
10
571.4742752
20
333.0034975
40
5.1427465
50
212.4713774
51
215.8875384
0
ARC
8
right_labelLayer
10
571.2706075
20
332.8577907
40
4.8927124
50
183.0160808
51
212.3123238
0
ARC
8
right_labelLayer
10
572.3442247
20
332.9774586
40
5.9714713
50
179.9759143
51
183.6206913
0
ARC
8
right_labelLayer
10
573.2105887
20
333.0377234
40
6.8380787
50
166.819573
51
180.483927
0
ARC
8
right_labelLayer
10
570.9421262
20
333.6104614
40
4.4989615
50
132.3287813
51
167.3340795
0
ARC
8
right_labelLayer
10
571.2456148
20
333.1742198
40
5.0263152
50
106.2188985
51
131.5377566
0
ARC
8
right_labelLayer
10
572.0135014
20
330.6878549
40
7.6283241
50
93.6329791
51
106.5408538
0
ARC
8
right_labelLayer
10
572.2641819
20
327.873501
40
10.4531536
50
89.9380276
51
94.0267802
0
ARC
8
right_labelLayer
10
572.3047718
20
329.2546105
40
9.0720852
50
82.5852281
51
90.1849441
0
ARC
8
right_labelLayer
10
572.5819746
20
331.3993945
40
6.909463
50
74.0088977
51
82.5694531
0
ARC
8
right_labelLayer
10
569.8046642
20
319.7591642
40
2.377052
50
179.2207494
51
200.9355693
0
ARC
8
right_labelLayer
10
569.5219902
20
319.6937111
40
2.0900323
50
202.0286899
51
236.1457329
0
ARC
8
right_labelLayer
10
569.9480604
20
320.2347104
40
2.7771605
50
235.0635309
51
238.5041123
0
ARC
8
right_labelLayer
10
570.4432999
20
321.1192895
40
3.7903626
50
239.1066175
51
254.4862847
0
ARC
8
right_labelLayer
10
571.1036547
20
323.396172
40
6.1609752
50
254.2323978
51
263.4937308
0
ARC
8
right_labelLayer
10
571.5184554
20
326.9094855
40
9.6986729
50
263.4108542
51
270.1457477
0
ARC
8
right_labelLayer
10
571.5627112
20
329.34823
40
12.137402
50
269.9075492
51
269.9994641
0
ARC
8
right_labelLayer
10
571.6193181
20
333.1215323
40
15.9108052
50
269.7957456
51
275.3991195
0
ARC
8
right_labelLayer
10
572.2148166
20
327.0082111
40
9.7685902
50
275.2956807
51
283.3516147
0
ARC
8
right_labelLayer
10
573.1849929
20
323.0122531
40
5.6566383
50
283.1370662
51
295.8572942
0
ARC
8
right_labelLayer
10
573.9038593
20
321.4428655
40
3.9310323
50
296.4047937
51
301.8008746
0
ARC
8
right_labelLayer
10
574.1857201
20
321.054355
40
3.4524869
50
301.2230707
51
318.6238125
0
ARC
8
right_labelLayer
10
574.8214219
20
320.4671318
40
2.5873915
50
319.0765576
51
1.1406991
0
ARC
8
right_labelLayer
10
574.2061879
20
320.5440093
40
3.2022133
50
359.546086
51
10.9904527
0
ARC
8
right_labelLayer
10
575.4430961
20
320.7955943
40
1.9400597
50
10.6608686
51
30.9361938
0
ARC
8
right_labelLayer
10
575.8352746
20
321.0132402
40
1.4918589
50
31.5095502
51
58.0777878
0
ARC
8
right_labelLayer
10
575.4677052
20
320.3550933
40
2.2451201
50
58.9972141
51
73.8586085
0
ARC
8
right_labelLayer
10
574.7247695
20
317.9229454
40
4.7880784
50
73.409987
51
81.590724
0
ARC
8
right_labelLayer
10
574.0952723
20
313.8492364
40
8.91009
50
81.4172489
51
86.575643
0
ARC
8
right_labelLayer
10
573.7095274
20
307.7116194
40
15.0598006
50
86.5054424
51
90.139907
0
ARC
8
right_labelLayer
10
570.8015988
20
317.3309039
40
5.4405765
50
89.6435123
51
100.0209091
0
ARC
8
right_labelLayer
10
570.4596497
20
319.1910827
40
3.5492982
50
99.8102893
51
116.8229586
0
ARC
8
right_labelLayer
10
570.1265521
20
319.8935385
40
2.7721879
50
117.2304273
51
130.5023362
0
ARC
8
right_labelLayer
10
569.9555297
20
320.1133422
40
2.4940105
50
130.7944666
51
169.0413509
0
ARC
8
right_labelLayer
10
571.2149505
20
319.8167439
40
3.7872027
50
168.2580609
51
180.3820294
0
ARC
8
right_labelLayer
10
573.3308363
20
333.0016646
40
4.6199363
50
179.5617702
51
191.6528921
0
ARC
8
right_labelLayer
10
571.7245376
20
332.6546193
40
2.9766878
50
191.3555301
51
213.3660129
0
ARC
8
right_labelLayer
10
571.3387854
20
332.4318854
40
2.532152
50
213.9574215
51
227.7971332
0
ARC
8
right_labelLayer
10
571.6743913
20
332.8389239
40
3.0592208
50
228.2620661
51
254.7341495
0
ARC
8
right_labelLayer
10
572.1031591
20
334.3087403
40
4.5901451
50
254.4016347
51
267.4348716
0
ARC
8
right_labelLayer
10
572.2150213
20
335.8089696
40
6.0940408
50
267.0154718
51
270.032302
0
ARC
8
right_labelLayer
10
572.2881384
20
334.8706387
40
5.1561798
50
269.2256732
51
284.3773284
0
ARC
8
right_labelLayer
10
572.9909178
20
332.4221514
40
2.6108857
50
282.7796621
51
346.4828545
0
ARC
8
right_labelLayer
10
570.8897956
20
333.0173098
40
4.7937167
50
345.4362098
51
0.7466044
0
ARC
8
right_labelLayer
10
570.5944397
20
333.1525498
40
5.0891862
50
359.1806315
51
15.0431677
0
ARC
8
right_labelLayer
10
572.9004414
20
333.8252348
40
2.6881026
50
13.9535589
51
77.6673855
0
ARC
8
right_labelLayer
10
572.238826
20
331.4542884
40
5.1475522
50
76.1094998
51
90.7028361
0
ARC
8
right_labelLayer
10
572.1397949
20
331.6353658
40
4.9662171
50
89.5859451
51
101.3333974
0
ARC
8
right_labelLayer
10
571.784891
20
333.3281056
40
3.2367767
50
101.0620312
51
121.9739239
0
ARC
8
right_labelLayer
10
571.5354685
20
333.7767962
40
2.724204
50
122.5210656
51
134.9966737
0
ARC
8
right_labelLayer
10
571.6381674
20
333.7152643
40
2.8404801
50
135.5839921
51
163.0015809
0
ARC
8
right_labelLayer
10
573.1381506
20
333.2236233
40
4.4187755
50
162.5911963
51
175.7343231
0
ARC
8
right_labelLayer
10
574.9373299
20
333.0463864
40
6.2263019
50
175.3393554
51
180.0863747
0
LINE
8
right_labelLayer
10
596.1573242
20
322.4149298
11
593.7905273
21
322.4149298
0
LINE
8
right_labelLayer
10
593.7905273
20
322.4149298
11
593.7905273
21
332.5237188
0
LINE
8
right_labelLayer
10
585.4639648
20
330.5846563
11
585.4639648
21
322.4149298
0
LINE
8
right_labelLayer
10
585.4639648
20
322.4149298
11
583.0971679
21
322.4149298
0
LINE
8
right_labelLayer
10
583.0971679
20
322.4149298
11
583.0971679
21
344.600086
0
LINE
8
right_labelLayer
10
583.0971679
20
344.600086
11
585.4639648
21
344.600086
0
LINE
8
right_labelLayer
10
585.4639648
20
344.600086
11
585.4639648
21
337.8846563
0
LINE
8
right_labelLayer
10
585.3499023
20
335.8743048
11
585.4924804
21
335.8743048
0
LINE
8
right_labelLayer
10
596.1573242
20
332.6092657
11
596.1573242
21
322.4149298
0
ARC
8
right_labelLayer
10
587.1003042
20
332.5620886
40
6.6903331
50
359.6714012
51
8.6877222
0
ARC
8
right_labelLayer
10
589.5799165
20
332.9553373
40
4.1797953
50
8.4931567
51
22.6579675
0
ARC
8
right_labelLayer
10
590.8397508
20
333.4788841
40
2.8155091
50
22.7024311
51
42.3419558
0
ARC
8
right_labelLayer
10
590.9813603
20
333.5425834
40
2.6683724
50
43.3790987
51
71.5386021
0
ARC
8
right_labelLayer
10
590.4518087
20
332.0628768
40
4.2397542
50
71.082811
51
84.3690995
0
ARC
8
right_labelLayer
10
590.2140999
20
330.0417881
40
6.2745308
50
84.0197881
51
90.151047
0
ARC
8
right_labelLayer
10
590.1465505
20
329.1541952
40
7.1622834
50
89.5919497
51
100.3595
0
ARC
8
right_labelLayer
10
589.6393953
20
331.8193735
40
4.4493951
50
100.1067791
51
118.0847374
0
ARC
8
right_labelLayer
10
589.1235786
20
332.831531
40
3.3136515
50
118.4551076
51
139.6706188
0
ARC
8
right_labelLayer
10
589.6414343
20
332.477569
40
3.9380508
50
140.6208476
51
160.504885
0
ARC
8
right_labelLayer
10
592.3710469
20
331.4670757
40
6.8485295
50
160.1567038
51
171.5312846
0
ARC
8
right_labelLayer
10
596.787647
20
330.7673187
40
11.3201024
50
171.3202373
51
178.3406727
0
ARC
8
right_labelLayer
10
600.7390129
20
330.5907834
40
15.2750493
50
178.107953
51
180.0229823
0
ARC
8
right_labelLayer
10
564.1728964
20
337.8592772
40
21.2910835
50
357.8674181
51
0.0682971
0
ARC
8
right_labelLayer
10
571.4059382
20
337.5833174
40
14.0527839
50
354.9828498
51
357.8943796
0
ARC
8
right_labelLayer
10
576.1822262
20
337.167414
40
9.2584241
50
351.9713419
51
354.9618387
0
ARC
8
right_labelLayer
10
589.5014346
20
333.3665643
40
4.7286865
50
119.831599
51
147.9725862
0
ARC
8
right_labelLayer
10
590.0739929
20
332.4870178
40
5.7768086
50
116.6657857
51
120.41834
0
ARC
8
right_labelLayer
10
590.1809417
20
332.2061147
40
6.0759084
50
96.6652574
51
116.3782495
0
ARC
8
right_labelLayer
10
590.4113038
20
330.6167456
40
7.6814008
50
89.8927409
51
96.9959139
0
ARC
8
right_labelLayer
10
590.4849634
20
328.6958771
40
9.6024388
50
80.6863042
51
90.3537131
0
ARC
8
right_labelLayer
10
591.0828766
20
332.2127092
40
6.0352389
50
65.6022725
51
80.8844144
0
ARC
8
right_labelLayer
10
591.8008571
20
333.8297572
40
4.2660415
50
46.7400797
51
65.4130813
0
ARC
8
right_labelLayer
10
591.8496514
20
333.9838293
40
4.1209943
50
19.2204424
51
45.7660672
0
ARC
8
right_labelLayer
10
589.4734578
20
333.1029561
40
6.6549072
50
6.4733822
51
19.6468001
0
ARC
8
right_labelLayer
10
585.9227923
20
332.6459679
40
10.2345977
50
359.7945314
51
6.774383
0
LINE
8
right_labelLayer
10
608.2051758
20
324.3682501
11
608.2051758
21
322.5575079
0
LINE
8
right_labelLayer
10
601.190332
20
326.9061407
11
601.190332
21
336.2022344
0
LINE
8
right_labelLayer
10
601.190332
20
336.2022344
11
598.9518554
21
336.2022344
0
LINE
8
right_labelLayer
10
598.9518554
20
336.2022344
11
598.9518554
21
337.3428594
0
LINE
8
right_labelLayer
10
598.9518554
20
337.3428594
11
601.190332
21
338.3266485
0
LINE
8
right_labelLayer
10
601.190332
20
338.3266485
11
602.1883789
21
341.6629766
0
LINE
8
right_labelLayer
10
602.1883789
20
341.6629766
11
603.5571289
21
341.6629766
0
LINE
8
right_labelLayer
10
603.5571289
20
341.6629766
11
603.5571289
21
338.0414923
0
LINE
8
right_labelLayer
10
603.5571289
20
338.0414923
11
608.0911133
21
338.0414923
0
LINE
8
right_labelLayer
10
608.0911133
20
338.0414923
11
608.0911133
21
336.2022344
0
LINE
8
right_labelLayer
10
608.0911133
20
336.2022344
11
603.5571289
21
336.2022344
0
LINE
8
right_labelLayer
10
603.5571289
20
336.2022344
11
603.5571289
21
327.0059454
0
ARC
8
right_labelLayer
10
606.0827338
20
331.8559786
40
7.7729017
50
269.8803655
51
278.3028246
0
ARC
8
right_labelLayer
10
606.1566942
20
331.2515226
40
7.1641149
50
278.4156009
51
279.0081719
0
ARC
8
right_labelLayer
10
605.2846655
20
336.8224467
40
12.8028704
50
278.9589615
51
280.5104724
0
ARC
8
right_labelLayer
10
606.1157292
20
332.3633298
40
8.2669727
50
280.4847673
51
282.6267902
0
ARC
8
right_labelLayer
10
606.8446842
20
329.1247499
40
4.9473708
50
282.5877284
51
285.5795074
0
ARC
8
right_labelLayer
10
607.2098897
20
327.7815318
40
3.5554305
50
285.724025
51
286.2562688
0
ARC
8
right_labelLayer
10
607.2101075
20
324.6621327
40
2.3280048
50
287.988856
51
295.3048206
0
ARC
8
right_labelLayer
10
606.6486094
20
326.360936
40
4.117184
50
283.3069392
51
288.1197432
0
ARC
8
right_labelLayer
10
606.055491
20
328.8349971
40
6.6613403
50
280.0069614
51
283.3735565
0
ARC
8
right_labelLayer
10
605.6589405
20
330.9868278
40
8.8493578
50
279.1861829
51
280.1144308
0
ARC
8
right_labelLayer
10
605.4149552
20
332.3746994
40
10.2583983
50
275.5260553
51
279.2939333
0
ARC
8
right_labelLayer
10
605.6894882
20
329.5072695
40
7.3778582
50
270.8932726
51
275.5483574
0
ARC
8
right_labelLayer
10
605.723983
20
328.1968745
40
6.067101
50
270.0031487
51
270.7604793
0
ARC
8
right_labelLayer
10
605.6288088
20
328.3107634
40
6.1817277
50
253.784797
51
270.8852538
0
ARC
8
right_labelLayer
10
604.8964388
20
325.8131015
40
3.578917
50
190.3817644
51
253.8772387
0
ARC
8
right_labelLayer
10
608.6293222
20
326.8224069
40
7.4394615
50
179.355102
51
192.8477597
0
ARC
8
right_labelLayer
10
608.3229859
20
326.976139
40
4.7659502
50
179.6416686
51
189.7505889
0
ARC
8
right_labelLayer
10
606.6405146
20
326.6760502
40
3.0569796
50
189.5479609
51
205.7873429
0
ARC
8
right_labelLayer
10
605.9490935
20
326.3572171
40
2.2957519
50
206.1294687
51
221.4083601
0
ARC
8
right_labelLayer
10
605.871558
20
326.2983855
40
2.1986983
50
221.5949173
51
262.3505152
0
ARC
8
right_labelLayer
10
606.0559422
20
327.2465594
40
3.1634833
50
261.3266181
51
270.1912898
0
LINE
8
bottom_outsideCutPath
10
660
20
143
11
660
21
101.875
0
LINE
8
bottom_outsideCutPath
10
660
20
101.875
11
654
21
101.875
0
LINE
8
bottom_outsideCutPath
10
654
20
101.875
11
654
21
50.125
0
LINE
8
bottom_outsideCutPath
10
654
20
50.125
11
660
21
50.125
0
LINE
8
bottom_outsideCutPath
10
660
20
50.125
11
660
21
9
0
LINE
8
bottom_outsideCutPath
10
660
20
9
11
723.875
21
9
0
LINE
8
bottom_outsideCutPath
10
723.875
20
9
11
723.875
21
3
0
LINE
8
bottom_outsideCutPath
10
723.875
20
3
11
775.625
21
3
0
LINE
8
bottom_outsideCutPath
10
775.625
20
3
11
775.625
21
9
0
LINE
8
bottom_outsideCutPath
10
775.625
20
9
11
827.375
21
9
0
LINE
8
bottom_outsideCutPath
10
827.375
20
9
11
827.375
21
3
0
LINE
8
bottom_outsideCutPath
10
827.375
20
3
11
879.125
21
3
0
LINE
8
bottom_outsideCutPath
10
879.125
20
3
11
879.125
21
9
0
LINE
8
bottom_outsideCutPath
10
879.125
20
9
11
930.875
21
9
0
LINE
8
bottom_outsideCutPath
10
930.875
20
9
11
930.875
21
3
0
LINE
8
bottom_outsideCutPath
10
930.875
20
3
11
982.625
21
3
0
LINE
8
bottom_outsideCutPath
10
982.625
20
3
11
982.625
21
9
0
LINE
8
bottom_outsideCutPath
10
982.625
20
9
11
1034.375
21
9
0
LINE
8
bottom_outsideCutPath
10
1034.375
20
9
11
1034.375
21
3
0
LINE
8
bottom_outsideCutPath
10
1034.375
20
3
11
1086.125
21
3
0
LINE
8
bottom_outsideCutPath
10
1086.125
20
3
11
1086.125
21
9
0
LINE
8
bottom_outsideCutPath
10
1086.125
20
9
11
1137.875
21
9
0
LINE
8
bottom_outsideCutPath
10
1137.875
20
9
11
1150
21
9
0
LINE
8
bottom_outsideCutPath
10
1150
20
9
11
1150
21
50.125
0
LINE
8
bottom_outsideCutPath
10
1150
20
50.125
11
1156
21
50.125
0
LINE
8
bottom_outsideCutPath
10
1156
20
50.125
11
1156
21
101.875
0
LINE
8
bottom_outsideCutPath
10
1156
20
101.875
11
1150
21
101.875
0
LINE
8
bottom_outsideCutPath
10
1150
20
101.875
11
1150
21
143
0
LINE
8
bottom_outsideCutPath
10
1150
20
143
11
1086.125
21
143
0
LINE
8
bottom_outsideCutPath
10
1086.125
20
143
11
1086.125
21
149
0
LINE
8
bottom_outsideCutPath
10
1086.125
20
149
11
1034.375
21
149
0
LINE
8
bottom_outsideCutPath
10
1034.375
20
149
11
1034.375
21
143
0
LINE
8
bottom_outsideCutPath
10
1034.375
20
143
11
982.625
21
143
0
LINE
8
bottom_outsideCutPath
10
982.625
20
143
11
982.625
21
149
0
LINE
8
bottom_outsideCutPath
10
982.625
20
149
11
930.875
21
149
0
LINE
8
bottom_outsideCutPath
10
930.875
20
149
11
930.875
21
143
0
LINE
8
bottom_outsideCutPath
10
930.875
20
143
11
879.125
21
143
0
LINE
8
bottom_outsideCutPath
10
879.125
20
143
11
879.125
21
149
0
LINE
8
bottom_outsideCutPath
10
879.125
20
149
11
827.375
21
149
0
LINE
8
bottom_outsideCutPath
10
827.375
20
149
11
827.375
21
143
0
LINE
8
bottom_outsideCutPath
10
827.375
20
143
11
775.625
21
143
0
LINE
8
bottom_outsideCutPath
10
775.625
20
143
11
775.625
21
149
0
LINE
8
bottom_outsideCutPath
10
775.625
20
149
11
723.875
21
149
0
LINE
8
bottom_outsideCutPath
10
723.875
20
149
11
723.875
21
143
0
LINE
8
bottom_outsideCutPath
10
723.875
20
143
11
672.125
21
143
0
LINE
8
bottom_outsideCutPath
10
672.125
20
143
11
660
21
143
0
LINE
8
bottom_labelLayer
10
859.3321574
20
67.0607205
11
859.1610637
21
67.0607205
0
LINE
8
bottom_labelLayer
10
859.1610637
20
67.0607205
11
858.6620402
21
65.0503689
0
LINE
8
bottom_labelLayer
10
858.6620402
20
65.0503689
11
856.9653605
21
65.0503689
0
LINE
8
bottom_labelLayer
10
856.9653605
20
65.0503689
11
856.9653605
21
87.2355252
0
LINE
8
bottom_labelLayer
10
856.9653605
20
87.2355252
11
859.3321574
21
87.2355252
0
LINE
8
bottom_labelLayer
10
859.3321574
20
87.2355252
11
859.3321574
21
81.846072
0
LINE
8
bottom_labelLayer
10
859.2180949
20
78.5952908
11
859.3321574
21
78.5952908
0
ARC
8
bottom_labelLayer
10
864.3078449
20
73.7001678
40
7.2337527
50
74.2393263
51
90.5623728
0
ARC
8
bottom_labelLayer
10
864.7861667
20
75.4549069
40
5.4150866
50
38.563127
51
74.0670431
0
ARC
8
bottom_labelLayer
10
863.5552345
20
74.4977854
40
6.9742521
50
16.4709223
51
38.4075281
0
ARC
8
bottom_labelLayer
10
860.009102
20
73.3858202
40
10.6903123
50
5.133848
51
16.797345
0
ARC
8
bottom_labelLayer
10
855.5324618
20
72.9102766
40
15.1917224
50
359.8779212
51
5.4093731
0
ARC
8
bottom_labelLayer
10
856.8473149
20
72.7960356
40
13.8770762
50
350.6562828
51
0.3380375
0
ARC
8
bottom_labelLayer
10
861.6850853
20
71.9731842
40
8.9699363
50
335.8305978
51
350.8254835
0
ARC
8
bottom_labelLayer
10
863.8131452
20
71.0546825
40
6.6524402
50
321.3161387
51
335.5436269
0
ARC
8
bottom_labelLayer
10
864.6267062
20
70.3917525
40
5.6030301
50
274.0640065
51
321.4081029
0
ARC
8
bottom_labelLayer
10
864.2476944
20
72.7925344
40
8.027329
50
269.9225611
51
275.5481729
0
ARC
8
bottom_labelLayer
10
864.1969322
20
71.9441096
40
7.1790079
50
255.775539
51
270.3185455
0
ARC
8
bottom_labelLayer
10
863.9920635
20
71.0338986
40
6.2464132
50
245.9801601
51
255.5455755
0
ARC
8
bottom_labelLayer
10
863.5952515
20
70.11111
40
5.242027
50
215.5850153
51
245.836168
0
ARC
8
bottom_labelLayer
10
809.9862054
20
81.8043609
40
49.3459696
50
358.1123181
51
0.048431
0
ARC
8
bottom_labelLayer
10
823.7201584
20
81.3432687
40
35.6042824
50
355.7238609
51
358.1259023
0
ARC
8
bottom_labelLayer
10
829.7522743
20
80.9289974
40
29.5580914
50
355.4716005
51
355.652804
0
ARC
8
bottom_labelLayer
10
863.7461305
20
75.5173087
40
5.3811832
50
95.1835147
51
145.1108998
0
ARC
8
bottom_labelLayer
10
864.2191175
20
72.8500839
40
8.0835076
50
89.8743486
51
96.8145349
0
ARC
8
bottom_labelLayer
10
863.8451083
20
72.3010096
40
6.650911
50
89.5731439
51
100.7324131
0
ARC
8
bottom_labelLayer
10
863.3527565
20
74.7885518
40
4.115246
50
100.4469504
51
119.6700659
0
ARC
8
bottom_labelLayer
10
862.8961947
20
75.6421484
40
3.1476699
50
120.140286
51
142.4249161
0
ARC
8
bottom_labelLayer
10
863.6515372
20
75.1424641
40
4.051543
50
143.338242
51
161.2559918
0
ARC
8
bottom_labelLayer
10
866.8102044
20
74.021029
40
7.4031977
50
160.8926212
51
171.2334371
0
ARC
8
bottom_labelLayer
10
872.0833212
20
73.1703532
40
12.7444159
50
171.0667935
51
177.845678
0
ARC
8
bottom_labelLayer
10
877.5671634
20
72.8914498
40
18.2350109
50
177.617681
51
180.0425494
0
ARC
8
bottom_labelLayer
10
874.9810961
20
72.8168012
40
15.649058
50
179.7762694
51
185.707531
0
ARC
8
bottom_labelLayer
10
868.8112234
20
72.1810835
40
9.4465691
50
185.5924798
51
194.2050768
0
ARC
8
bottom_labelLayer
10
864.8588751
20
71.1553097
40
5.3634075
50
193.9430331
51
208.0218465
0
ARC
8
bottom_labelLayer
10
863.259769
20
70.3418037
40
3.569729
50
208.5536965
51
217.5605041
0
ARC
8
bottom_labelLayer
10
863.1294578
20
70.2875965
40
3.433579
50
218.1690361
51
253.8047245
0
ARC
8
bottom_labelLayer
10
863.7663232
20
72.2511215
40
5.497186
50
253.1382585
51
266.8482997
0
ARC
8
bottom_labelLayer
10
863.944908
20
74.3571724
40
7.6101269
50
266.3775554
51
270.0510508
0
ARC
8
bottom_labelLayer
10
864.0021753
20
71.4649645
40
4.718186
50
269.386898
51
285.8630739
0
ARC
8
bottom_labelLayer
10
864.3527075
20
70.1980962
40
3.4037611
50
286.0162857
51
326.8497315
0
ARC
8
bottom_labelLayer
10
862.6608591
20
71.3188839
40
5.4331469
50
326.7105017
51
343.6661714
0
ARC
8
bottom_labelLayer
10
859.4938215
20
72.2866267
40
8.744605
50
343.4171403
51
353.6369164
0
ARC
8
bottom_labelLayer
10
854.7103131
20
72.8542235
40
13.5615933
50
353.4934803
51
0.2205386
0
ARC
8
bottom_labelLayer
10
854.2886627
20
72.9630227
40
13.9832577
50
359.7680871
51
6.309523
0
ARC
8
bottom_labelLayer
10
859.555867
20
73.5674651
40
8.6815582
50
6.1648709
51
16.0396325
0
ARC
8
bottom_labelLayer
10
862.9489213
20
74.5673946
40
5.1443637
50
15.7779574
51
32.0151182
0
ARC
8
bottom_labelLayer
10
864.0066923
20
75.1731098
40
3.9266388
50
32.7035511
51
35.5241151
0
ARC
8
bottom_labelLayer
10
864.3939812
20
75.4483691
40
3.4514976
50
35.5408304
51
79.8011291
0
ARC
8
bottom_labelLayer
10
863.9304797
20
73.4779364
40
5.473917
50
78.6781266
51
90.3749568
0
ARC
8
bottom_labelLayer
10
876.1216129
20
72.7954887
40
12.2254708
50
349.1761922
51
0.3862683
0
ARC
8
bottom_labelLayer
10
880.2376334
20
71.974953
40
8.0286568
50
330.25071
51
349.4116412
0
ARC
8
bottom_labelLayer
10
881.5043287
20
71.3165777
40
6.6024617
50
318.1439922
51
329.7566097
0
ARC
8
bottom_labelLayer
10
881.7329655
20
71.133349
40
6.3099265
50
278.8959139
51
317.9979156
0
ARC
8
bottom_labelLayer
10
881.143891
20
73.9556604
40
9.1905351
50
269.7502946
51
279.8033199
0
ARC
8
bottom_labelLayer
10
881.0483555
20
72.3654578
40
7.6004477
50
253.5436958
51
270.4182505
0
ARC
8
bottom_labelLayer
10
880.7953531
20
71.3867804
40
6.5902799
50
238.811564
51
253.2428364
0
ARC
8
bottom_labelLayer
10
880.7136991
20
71.2225726
40
6.4075381
50
207.7947016
51
238.6757964
0
ARC
8
bottom_labelLayer
10
881.8853131
20
71.9401357
40
7.7790821
50
205.6560111
51
208.4461402
0
ARC
8
bottom_labelLayer
10
882.7878326
20
72.3161884
40
8.7555936
50
188.9102428
51
205.3171415
0
ARC
8
bottom_labelLayer
10
885.8292436
20
72.8313036
40
11.8401466
50
179.7744757
51
189.0932769
0
ARC
8
bottom_labelLayer
10
886.277874
20
72.9611433
40
12.2889672
50
169.2442972
51
180.3880775
0
ARC
8
bottom_labelLayer
10
882.1046375
20
73.7860411
40
8.035165
50
150.7111525
51
169.4695457
0
ARC
8
bottom_labelLayer
10
880.7724045
20
74.4701919
40
6.538775
50
138.1759353
51
150.2287444
0
ARC
8
bottom_labelLayer
10
880.5508045
20
74.6402442
40
6.2602764
50
99.1759388
51
137.9832741
0
ARC
8
bottom_labelLayer
10
881.1607454
20
71.7697941
40
9.1923935
50
89.7326278
51
100.0759813
0
ARC
8
bottom_labelLayer
10
881.282652
20
73.0094373
40
7.9530428
50
73.5222793
51
90.5692198
0
ARC
8
bottom_labelLayer
10
881.7490515
20
74.7039923
40
6.1958825
50
41.1445651
51
73.2133841
0
ARC
8
bottom_labelLayer
10
880.8587342
20
73.9387765
40
7.369826
50
13.5014361
51
41.0703429
0
ARC
8
bottom_labelLayer
10
877.4190135
20
73.0386458
40
10.9248785
50
1.1277163
51
13.8800099
0
ARC
8
bottom_labelLayer
10
874.4562801
20
72.879879
40
13.8905257
50
359.9918698
51
1.5419588
0
ARC
8
bottom_labelLayer
10
888.4268012
20
72.8164001
40
11.9854266
50
179.7059633
51
187.9160695
0
ARC
8
bottom_labelLayer
10
884.0309147
20
72.1849373
40
7.544489
50
187.7639254
51
200.0976813
0
ARC
8
bottom_labelLayer
10
881.6092435
20
71.2976352
40
4.9653816
50
200.0845966
51
216.9131558
0
ARC
8
bottom_labelLayer
10
880.7249317
20
70.6661957
40
3.8791769
50
217.3009566
51
261.7099078
0
ARC
8
bottom_labelLayer
10
881.1354582
20
72.625185
40
5.8781914
50
260.5033159
51
270.2476782
0
ARC
8
bottom_labelLayer
10
881.2138163
20
72.2442541
40
5.4974605
50
269.448156
51
284.7255644
0
ARC
8
bottom_labelLayer
10
881.649017
20
70.630233
40
3.825844
50
284.5662335
51
322.6333849
0
ARC
8
bottom_labelLayer
10
880.6314963
20
71.3653472
40
5.0807968
50
323.0089189
51
342.6390535
0
ARC
8
bottom_labelLayer
10
877.7211567
20
72.3165304
40
8.1424721
50
342.3615699
51
353.7537567
0
ARC
8
bottom_labelLayer
10
873.4274708
20
72.8340795
40
12.4670683
50
353.5363008
51
0.2014259
0
ARC
8
bottom_labelLayer
10
874.0853031
20
72.9381821
40
11.8093128
50
359.7075641
51
7.8972711
0
ARC
8
bottom_labelLayer
10
878.410192
20
73.5581941
40
7.4402797
50
7.7439994
51
20.0690094
0
ARC
8
bottom_labelLayer
10
880.8202129
20
74.4425805
40
4.873118
50
20.0256984
51
37.4350668
0
ARC
8
bottom_labelLayer
10
881.6198271
20
75.0099753
40
3.8934546
50
37.9577726
51
80.4006122
0
ARC
8
bottom_labelLayer
10
881.1654291
20
72.9825005
40
5.9693273
50
79.345334
51
90.3174808
0
ARC
8
bottom_labelLayer
10
881.0812905
20
73.3192735
40
5.632694
50
89.4805877
51
103.8805156
0
ARC
8
bottom_labelLayer
10
880.6079987
20
75.1215618
40
3.7695917
50
103.4685223
51
142.3118879
0
ARC
8
bottom_labelLayer
10
881.5281213
20
74.4744671
40
4.8936008
50
142.9025837
51
162.3749512
0
ARC
8
bottom_labelLayer
10
884.4274146
20
73.5082866
40
7.9494592
50
162.0653203
51
173.1674866
0
ARC
8
bottom_labelLayer
10
888.9481743
20
72.9316911
40
12.5067573
50
173.0086224
51
180.2463913
0
LINE
8
bottom_labelLayer
10
899.6817668
20
67.0036892
11
899.6817668
21
65.192947
0
LINE
8
bottom_labelLayer
10
892.666923
20
69.5415799
11
892.666923
21
78.8376736
0
LINE
8
bottom_labelLayer
10
892.666923
20
78.8376736
11
890.4284465
21
78.8376736
0
LINE
8
bottom_labelLayer
10
890.4284465
20
78.8376736
11
890.4284465
21
79.9782986
0
LINE
8
bottom_labelLayer
10
890.4284465
20
79.9782986
11
892.666923
21
80.9620877
0
LINE
8
bottom_labelLayer
10
892.666923
20
80.9620877
11
893.6649699
21
84.2984158
0
LINE
8
bottom_labelLayer
10
893.6649699
20
84.2984158
11
895.0337199
21
84.2984158
0
LINE
8
bottom_labelLayer
10
895.0337199
20
84.2984158
11
895.0337199
21
80.6769314
0
LINE
8
bottom_labelLayer
10
895.0337199
20
80.6769314
11
899.5677043
21
80.6769314
0
LINE
8
bottom_labelLayer
10
899.5677043
20
80.6769314
11
899.5677043
21
78.8376736
0
LINE
8
bottom_labelLayer
10
899.5677043
20
78.8376736
11
895.0337199
21
78.8376736
0
LINE
8
bottom_labelLayer
10
895.0337199
20
78.8376736
11
895.0337199
21
69.6413845
0
ARC
8
bottom_labelLayer
10
897.5593248
20
74.4914177
40
7.7729017
50
269.8803655
51
278.3028246
0
ARC
8
bottom_labelLayer
10
897.6332853
20
73.8869618
40
7.1641149
50
278.4156009
51
279.0081719
0
ARC
8
bottom_labelLayer
10
896.7612565
20
79.4578859
40
12.8028704
50
278.9589615
51
280.5104724
0
ARC
8
bottom_labelLayer
10
897.5923202
20
74.998769
40
8.2669727
50
280.4847673
51
282.6267902
0
ARC
8
bottom_labelLayer
10
898.3212752
20
71.7601891
40
4.9473708
50
282.5877284
51
285.5795074
0
ARC
8
bottom_labelLayer
10
898.6864807
20
70.416971
40
3.5554305
50
285.724025
51
286.2562688
0
ARC
8
bottom_labelLayer
10
898.6866985
20
67.2975719
40
2.3280048
50
287.988856
51
295.3048206
0
ARC
8
bottom_labelLayer
10
898.1252004
20
68.9963751
40
4.117184
50
283.3069392
51
288.1197432
0
ARC
8
bottom_labelLayer
10
897.532082
20
71.4704362
40
6.6613403
50
280.0069614
51
283.3735565
0
ARC
8
bottom_labelLayer
10
897.1355315
20
73.622267
40
8.8493578
50
279.1861829
51
280.1144308
0
ARC
8
bottom_labelLayer
10
896.8915463
20
75.0101386
40
10.2583983
50
275.5260553
51
279.2939333
0
ARC
8
bottom_labelLayer
10
897.1660793
20
72.1427087
40
7.3778582
50
270.8932726
51
275.5483574
0
ARC
8
bottom_labelLayer
10
897.200574
20
70.8323137
40
6.067101
50
270.0031487
51
270.7604793
0
ARC
8
bottom_labelLayer
10
897.1053998
20
70.9462025
40
6.1817277
50
253.784797
51
270.8852538
0
ARC
8
bottom_labelLayer
10
896.3730298
20
68.4485406
40
3.578917
50
190.3817644
51
253.8772387
0
ARC
8
bottom_labelLayer
10
900.1059132
20
69.4578461
40
7.4394615
50
179.355102
51
192.8477597
0
ARC
8
bottom_labelLayer
10
899.7995769
20
69.6115782
40
4.7659502
50
179.6416686
51
189.7505889
0
ARC
8
bottom_labelLayer
10
898.1171056
20
69.3114894
40
3.0569796
50
189.5479609
51
205.7873429
0
ARC
8
bottom_labelLayer
10
897.4256845
20
68.9926563
40
2.2957519
50
206.1294687
51
221.4083601
0
ARC
8
bottom_labelLayer
10
897.348149
20
68.9338246
40
2.1986983
50
221.5949173
51
262.3505152
0
ARC
8
bottom_labelLayer
10
897.5325332
20
69.8819986
40
3.1634833
50
261.3266181
51
270.1912898
0
LINE
8
bottom_labelLayer
10
909.9901652
20
67.0036892
11
909.9901652
21
65.192947
0
LINE
8
bottom_labelLayer
10
902.9753215
20
69.5415799
11
902.9753215
21
78.8376736
0
LINE
8
bottom_labelLayer
10
902.9753215
20
78.8376736
11
900.7368449
21
78.8376736
0
LINE
8
bottom_labelLayer
10
900.7368449
20
78.8376736
11
900.7368449
21
79.9782986
0
LINE
8
bottom_labelLayer
10
900.7368449
20
79.9782986
11
902.9753215
21
80.9620877
0
LINE
8
bottom_labelLayer
10
902.9753215
20
80.9620877
11
903.9733683
21
84.2984158
0
LINE
8
bottom_labelLayer
10
903.9733683
20
84.2984158
11
905.3421183
21
84.2984158
0
LINE
8
bottom_labelLayer
10
905.3421183
20
84.2984158
11
905.3421183
21
80.6769314
0
LINE
8
bottom_labelLayer
10
905.3421183
20
80.6769314
11
909.8761027
21
80.6769314
0
LINE
8
bottom_labelLayer
10
909.8761027
20
80.6769314
11
909.8761027
21
78.8376736
0
LINE
8
bottom_labelLayer
10
909.8761027
20
78.8376736
11
905.3421183
21
78.8376736
0
LINE
8
bottom_labelLayer
10
905.3421183
20
78.8376736
11
905.3421183
21
69.6413845
0
ARC
8
bottom_labelLayer
10
907.8677233
20
74.4914177
40
7.7729017
50
269.8803655
51
278.3028246
0
ARC
8
bottom_labelLayer
10
907.9416837
20
73.8869618
40
7.1641149
50
278.4156009
51
279.0081719
0
ARC
8
bottom_labelLayer
10
907.069655
20
79.4578859
40
12.8028704
50
278.9589615
51
280.5104724
0
ARC
8
bottom_labelLayer
10
907.9007187
20
74.998769
40
8.2669727
50
280.4847673
51
282.6267902
0
ARC
8
bottom_labelLayer
10
908.6296736
20
71.7601891
40
4.9473708
50
282.5877284
51
285.5795074
0
ARC
8
bottom_labelLayer
10
908.9948791
20
70.416971
40
3.5554305
50
285.724025
51
286.2562688
0
ARC
8
bottom_labelLayer
10
908.995097
20
67.2975719
40
2.3280048
50
287.988856
51
295.3048206
0
ARC
8
bottom_labelLayer
10
908.4335989
20
68.9963751
40
4.117184
50
283.3069392
51
288.1197432
0
ARC
8
bottom_labelLayer
10
907.8404805
20
71.4704362
40
6.6613403
50
280.0069614
51
283.3735565
0
ARC
8
bottom_labelLayer
10
907.4439299
20
73.622267
40
8.8493578
50
279.1861829
51
280.1144308
0
ARC
8
bottom_labelLayer
10
907.1999447
20
75.0101386
40
10.2583983
50
275.5260553
51
279.2939333
0
ARC
8
bottom_labelLayer
10
907.4744777
20
72.1427087
40
7.3778582
50
270.8932726
51
275.5483574
0
ARC
8
bottom_labelLayer
10
907.5089724
20
70.8323137
40
6.067101
50
270.0031487
51
270.7604793
0
ARC
8
bottom_labelLayer
10
907.4137983
20
70.9462025
40
6.1817277
50
253.784797
51
270.8852538
0
ARC
8
bottom_labelLayer
10
906.6814282
20
68.4485406
40
3.578917
50
190.3817644
51
253.8772387
0
ARC
8
bottom_labelLayer
10
910.4143116
20
69.4578461
40
7.4394615
50
179.355102
51
192.8477597
0
ARC
8
bottom_labelLayer
10
910.1079754
20
69.6115782
40
4.7659502
50
179.6416686
51
189.7505889
0
ARC
8
bottom_labelLayer
10
908.425504
20
69.3114894
40
3.0569796
50
189.5479609
51
205.7873429
0
ARC
8
bottom_labelLayer
10
907.7340829
20
68.9926563
40
2.2957519
50
206.1294687
51
221.4083601
0
ARC
8
bottom_labelLayer
10
907.6565474
20
68.9338246
40
2.1986983
50
221.5949173
51
262.3505152
0
ARC
8
bottom_labelLayer
10
907.8409316
20
69.8819986
40
3.1634833
50
261.3266181
51
270.1912898
0
ARC
8
bottom_labelLayer
10
914.3753238
20
72.7954887
40
12.2254708
50
349.1761922
51
0.3862683
0
ARC
8
bottom_labelLayer
10
918.4913444
20
71.974953
40
8.0286568
50
330.25071
51
349.4116412
0
ARC
8
bottom_labelLayer
10
919.7580396
20
71.3165777
40
6.6024617
50
318.1439922
51
329.7566097
0
ARC
8
bottom_labelLayer
10
919.9866765
20
71.133349
40
6.3099265
50
278.8959139
51
317.9979156
0
ARC
8
bottom_labelLayer
10
919.3976019
20
73.9556604
40
9.1905351
50
269.7502946
51
279.8033199
0
ARC
8
bottom_labelLayer
10
919.3020664
20
72.3654578
40
7.6004477
50
253.5436958
51
270.4182505
0
ARC
8
bottom_labelLayer
10
919.0490641
20
71.3867804
40
6.5902799
50
238.811564
51
253.2428364
0
ARC
8
bottom_labelLayer
10
918.96741
20
71.2225726
40
6.4075381
50
207.7947016
51
238.6757964
0
ARC
8
bottom_labelLayer
10
920.139024
20
71.9401357
40
7.7790821
50
205.6560111
51
208.4461402
0
ARC
8
bottom_labelLayer
10
921.0415436
20
72.3161884
40
8.7555936
50
188.9102428
51
205.3171415
0
ARC
8
bottom_labelLayer
10
924.0829545
20
72.8313036
40
11.8401466
50
179.7744757
51
189.0932769
0
ARC
8
bottom_labelLayer
10
924.5315849
20
72.9611433
40
12.2889672
50
169.2442972
51
180.3880775
0
ARC
8
bottom_labelLayer
10
920.3583484
20
73.7860411
40
8.035165
50
150.7111525
51
169.4695457
0
ARC
8
bottom_labelLayer
10
919.0261154
20
74.4701919
40
6.538775
50
138.1759353
51
150.2287444
0
ARC
8
bottom_labelLayer
10
918.8045155
20
74.6402442
40
6.2602764
50
99.1759388
51
137.9832741
0
ARC
8
bottom_labelLayer
10
919.4144563
20
71.7697941
40
9.1923935
50
89.7326278
51
100.0759813
0
ARC
8
bottom_labelLayer
10
919.536363
20
73.0094373
40
7.9530428
50
73.5222793
51
90.5692198
0
ARC
8
bottom_labelLayer
10
920.0027624
20
74.7039923
40
6.1958825
50
41.1445651
51
73.2133841
0
ARC
8
bottom_labelLayer
10
919.1124451
20
73.9387765
40
7.369826
50
13.5014361
51
41.0703429
0
ARC
8
bottom_labelLayer
10
915.6727245
20
73.0386458
40
10.9248785
50
1.1277163
51
13.8800099
0
ARC
8
bottom_labelLayer
10
912.709991
20
72.879879
40
13.8905257
50
359.9918698
51
1.5419588
0
ARC
8
bottom_labelLayer
10
926.6805121
20
72.8164001
40
11.9854266
50
179.7059633
51
187.9160695
0
ARC
8
bottom_labelLayer
10
922.2846256
20
72.1849373
40
7.544489
50
187.7639254
51
200.0976813
0
ARC
8
bottom_labelLayer
10
919.8629545
20
71.2976352
40
4.9653816
50
200.0845966
51
216.9131558
0
ARC
8
bottom_labelLayer
10
918.9786427
20
70.6661957
40
3.8791769
50
217.3009566
51
261.7099078
0
ARC
8
bottom_labelLayer
10
919.3891691
20
72.625185
40
5.8781914
50
260.5033159
51
270.2476782
0
ARC
8
bottom_labelLayer
10
919.4675272
20
72.2442541
40
5.4974605
50
269.448156
51
284.7255644
0
ARC
8
bottom_labelLayer
10
919.9027279
20
70.630233
40
3.825844
50
284.5662335
51
322.6333849
0
ARC
8
bottom_labelLayer
10
918.8852072
20
71.3653472
40
5.0807968
50
323.0089189
51
342.6390535
0
ARC
8
bottom_labelLayer
10
915.9748676
20
72.3165304
40
8.1424721
50
342.3615699
51
353.7537567
0
ARC
8
bottom_labelLayer
10
911.6811818
20
72.8340795
40
12.4670683
50
353.5363008
51
0.2014259
0
ARC
8
bottom_labelLayer
10
912.3390141
20
72.9381821
40
11.8093128
50
359.7075641
51
7.8972711
0
ARC
8
bottom_labelLayer
10
916.663903
20
73.5581941
40
7.4402797
50
7.7439994
51
20.0690094
0
ARC
8
bottom_labelLayer
10
919.0739238
20
74.4425805
40
4.873118
50
20.0256984
51
37.4350668
0
ARC
8
bottom_labelLayer
10
919.873538
20
75.0099753
40
3.8934546
50
37.9577726
51
80.4006122
0
ARC
8
bottom_labelLayer
10
919.41914
20
72.9825005
40
5.9693273
50
79.345334
51
90.3174808
0
ARC
8
bottom_labelLayer
10
919.3350014
20
73.3192735
40
5.632694
50
89.4805877
51
103.8805156
0
ARC
8
bottom_labelLayer
10
918.8617097
20
75.1215618
40
3.7695917
50
103.4685223
51
142.3118879
0
ARC
8
bottom_labelLayer
10
919.7818322
20
74.4744671
40
4.8936008
50
142.9025837
51
162.3749512
0
ARC
8
bottom_labelLayer
10
922.6811256
20
73.5082866
40
7.9494592
50
162.0653203
51
173.1674866
0
ARC
8
bottom_labelLayer
10
927.2018852
20
72.9316911
40
12.5067573
50
173.0086224
51
180.2463913
0
LINE
8
bottom_labelLayer
10
953.0345012
20
65.0503689
11
950.6677043
21
65.0503689
0
LINE
8
bottom_labelLayer
10
950.6677043
20
65.0503689
11
950.6677043
21
75.2161892
0
LINE
8
bottom_labelLayer
10
943.0682902
20
73.7761502
11
943.0682902
21
65.0503689
0
LINE
8
bottom_labelLayer
10
943.0682902
20
65.0503689
11
940.7014933
21
65.0503689
0
LINE
8
bottom_labelLayer
10
940.7014933
20
65.0503689
11
940.7014933
21
75.2161892
0
LINE
8
bottom_labelLayer
10
933.1163371
20
73.2486111
11
933.1163371
21
65.0503689
0
LINE
8
bottom_labelLayer
10
933.1163371
20
65.0503689
11
930.7495402
21
65.0503689
0
LINE
8
bottom_labelLayer
10
930.7495402
20
65.0503689
11
930.7495402
21
80.6769314
0
LINE
8
bottom_labelLayer
10
930.7495402
20
80.6769314
11
932.6743449
21
80.6769314
0
LINE
8
bottom_labelLayer
10
932.6743449
20
80.6769314
11
933.0593058
21
78.5382595
0
LINE
8
bottom_labelLayer
10
933.0593058
20
78.5382595
11
933.1733683
21
78.5382595
0
LINE
8
bottom_labelLayer
10
942.5835246
20
78.3101345
11
942.6975871
21
78.3101345
0
LINE
8
bottom_labelLayer
10
953.0345012
20
75.2447049
11
953.0345012
21
65.0503689
0
ARC
8
bottom_labelLayer
10
943.6855582
20
75.2533765
40
6.9822452
50
359.6948422
51
8.147151
0
ARC
8
bottom_labelLayer
10
946.257336
20
75.6339699
40
4.3825045
50
7.9864698
51
20.7949476
0
ARC
8
bottom_labelLayer
10
947.6789491
20
76.1785368
40
2.8601683
50
20.7071127
51
40.0217567
0
ARC
8
bottom_labelLayer
10
947.990818
20
76.3825888
40
2.4905114
50
41.0408021
51
73.1792733
0
ARC
8
bottom_labelLayer
10
947.5395456
20
75.0177107
40
3.9277556
50
72.6395482
51
86.256798
0
ARC
8
bottom_labelLayer
10
947.3949811
20
73.4577792
40
5.4939608
50
85.814439
51
90.0685567
0
ARC
8
bottom_labelLayer
10
947.3418651
20
72.8617769
40
6.0901371
50
89.5621277
51
101.2961707
0
ARC
8
bottom_labelLayer
10
946.8831766
20
75.057679
40
3.8469765
50
101.0032387
51
121.7840454
0
ARC
8
bottom_labelLayer
10
946.5344578
20
75.6802412
40
3.1342555
50
122.3597211
51
140.2884028
0
ARC
8
bottom_labelLayer
10
947.1618395
20
75.2202241
40
3.9110793
50
140.9765326
51
161.1699479
0
ARC
8
bottom_labelLayer
10
949.5253172
20
74.3791146
40
6.4196284
50
160.873168
51
172.5272544
0
ARC
8
bottom_labelLayer
10
953.4746428
20
73.8336828
40
10.4063831
50
172.377652
51
180.1829688
0
ARC
8
bottom_labelLayer
10
956.2341632
20
73.7761646
40
13.1658729
50
179.8943094
51
180.0000627
0
ARC
8
bottom_labelLayer
10
933.7193472
20
75.2533765
40
6.9822452
50
359.6948422
51
8.147151
0
ARC
8
bottom_labelLayer
10
936.2911251
20
75.6339699
40
4.3825045
50
7.9864698
51
20.7949476
0
ARC
8
bottom_labelLayer
10
937.7127381
20
76.1785368
40
2.8601683
50
20.7071127
51
40.0217567
0
ARC
8
bottom_labelLayer
10
938.0310906
20
76.3870682
40
2.4826802
50
41.0610777
51
72.8993543
0
ARC
8
bottom_labelLayer
10
937.5712707
20
75.0181341
40
3.9264778
50
72.3600986
51
85.9561762
0
ARC
8
bottom_labelLayer
10
937.4156118
20
73.4094219
40
5.5423197
50
85.5237818
51
90.0793239
0
ARC
8
bottom_labelLayer
10
937.3625205
20
73.0734776
40
5.878434
50
89.557315
51
101.483227
0
ARC
8
bottom_labelLayer
10
936.9113292
20
75.1873997
40
3.7170638
50
101.1546252
51
123.0655768
0
ARC
8
bottom_labelLayer
10
936.6046362
20
75.7216442
40
3.102202
50
123.7020446
51
142.3021919
0
ARC
8
bottom_labelLayer
10
937.3230476
20
75.2342651
40
3.9690363
50
143.0769647
51
161.3913859
0
ARC
8
bottom_labelLayer
10
940.2189475
20
74.2115008
40
7.0400509
50
161.0234579
51
171.4469023
0
ARC
8
bottom_labelLayer
10
945.0129844
20
73.4605289
40
11.8924966
50
171.3041866
51
178.3501685
0
ARC
8
bottom_labelLayer
10
949.5947658
20
73.2558929
40
16.4784304
50
178.0976074
51
180.0253188
0
ARC
8
bottom_labelLayer
10
937.1830411
20
76.1803746
40
4.6515693
50
117.1209491
51
149.5423761
0
ARC
8
bottom_labelLayer
10
937.6577745
20
75.3365981
40
5.619114
50
93.8343257
51
117.5072181
0
ARC
8
bottom_labelLayer
10
937.7888955
20
74.1752189
40
6.7868699
50
89.966197
51
94.2831503
0
ARC
8
bottom_labelLayer
10
937.8674575
20
73.2135364
40
7.74891
50
77.5572215
51
90.5512933
0
ARC
8
bottom_labelLayer
10
938.5864721
20
76.3061491
40
4.5741555
50
52.7027101
51
78.0053802
0
ARC
8
bottom_labelLayer
10
938.8426432
20
76.7827636
40
4.0406751
50
22.2097882
51
51.4970547
0
ARC
8
bottom_labelLayer
10
946.9851433
20
75.8529263
40
4.9417619
50
119.404177
51
150.1828796
0
ARC
8
bottom_labelLayer
10
947.5334322
20
75.0190887
40
5.9377673
50
118.2584761
51
120.0629575
0
ARC
8
bottom_labelLayer
10
947.5316467
20
74.9585583
40
5.9903146
50
95.8635119
51
117.9693245
0
ARC
8
bottom_labelLayer
10
947.7343849
20
73.4926149
40
7.4694803
50
89.9197049
51
96.2617608
0
ARC
8
bottom_labelLayer
10
947.7994689
20
72.7351422
40
8.2271268
50
79.9361077
51
90.3803635
0
ARC
8
bottom_labelLayer
10
948.3476564
20
75.7040653
40
5.2081334
50
62.9723192
51
80.1665248
0
ARC
8
bottom_labelLayer
10
948.9207114
20
76.8797505
40
3.9005126
50
44.2289981
51
62.6229174
0
ARC
8
bottom_labelLayer
10
948.7502673
20
76.8044529
40
4.075685
50
19.5612137
51
43.3161147
0
ARC
8
bottom_labelLayer
10
946.2749241
20
75.8747131
40
6.7196181
50
7.5041879
51
19.9645288
0
ARC
8
bottom_labelLayer
10
942.1788924
20
75.2995094
40
10.8557471
50
359.7107445
51
7.6907154
0
ENDSEC
0
EOF